# Blender 4.4.3
# www.blender.org
o Bishop
v 0.000000 -0.004264 -0.334361
v 0.000000 0.217531 -0.288261
v 0.127955 -0.004264 -0.308910
v 0.110313 0.217531 -0.266319
v 0.236429 -0.004264 -0.236429
v 0.203831 0.217531 -0.203831
v 0.308910 -0.004264 -0.127955
v 0.266319 0.217531 -0.110313
v 0.334361 -0.004264 0.000000
v 0.288261 0.217531 0.000000
v 0.308910 -0.004264 0.127955
v 0.266319 0.217531 0.110313
v 0.236429 -0.004264 0.236429
v 0.203831 0.217531 0.203831
v 0.127955 -0.004264 0.308910
v 0.110313 0.217531 0.266319
v 0.000000 -0.004264 0.334361
v 0.000000 0.217531 0.288261
v -0.127955 -0.004264 0.308910
v -0.110313 0.217531 0.266319
v -0.236429 -0.004264 0.236429
v -0.203831 0.217531 0.203831
v -0.308910 -0.004264 0.127955
v -0.266319 0.217531 0.110313
v -0.334361 -0.004264 0.000000
v -0.288261 0.217531 0.000000
v -0.308910 -0.004264 -0.127955
v -0.266319 0.217531 -0.110313
v -0.236429 -0.004264 -0.236429
v -0.203831 0.217531 -0.203831
v -0.127955 -0.004264 -0.308910
v -0.110313 0.217531 -0.266319
v 0.068505 0.348928 -0.165386
v -0.000000 0.348928 -0.179013
v 0.126581 0.348928 -0.126581
v 0.165386 0.348928 -0.068505
v 0.179013 0.348928 -0.000000
v 0.165386 0.348928 0.068505
v 0.126581 0.348928 0.126581
v 0.068505 0.348928 0.165386
v -0.000000 0.348928 0.179013
v -0.068505 0.348928 0.165386
v -0.126581 0.348928 0.126581
v -0.165386 0.348928 0.068505
v -0.179013 0.348928 -0.000000
v -0.165386 0.348928 -0.068505
v -0.126581 0.348928 -0.126581
v -0.068505 0.348928 -0.165386
v 0.050331 0.626992 -0.121510
v 0.000000 0.626992 -0.131522
v 0.093000 0.626992 -0.093000
v 0.121510 0.626992 -0.050331
v 0.131522 0.626992 -0.000000
v 0.121510 0.626992 0.050331
v 0.093000 0.626992 0.093000
v 0.050331 0.626992 0.121510
v 0.000000 0.626992 0.131522
v -0.050331 0.626992 0.121510
v -0.093000 0.626992 0.093000
v -0.121510 0.626992 0.050331
v -0.131522 0.626992 -0.000000
v -0.121510 0.626992 -0.050331
v -0.093000 0.626992 -0.093000
v -0.050331 0.626992 -0.121510
v 0.088371 0.824475 -0.213345
v -0.000000 0.824475 -0.230923
v 0.163288 0.824475 -0.163288
v 0.213345 0.824475 -0.088371
v 0.230923 0.824475 -0.000000
v 0.213345 0.824475 0.088371
v 0.163288 0.824475 0.163288
v 0.088371 0.824475 0.213345
v -0.000000 0.824475 0.230923
v -0.088371 0.824475 0.213345
v -0.163288 0.824475 0.163288
v -0.213346 0.824475 0.088371
v -0.230924 0.824475 -0.000000
v -0.213346 0.824475 -0.088371
v -0.163288 0.824475 -0.163288
v -0.088371 0.824475 -0.213345
v 0.083115 0.993605 -0.200656
v -0.000000 0.993605 -0.217189
v 0.153576 0.993605 -0.153576
v 0.200656 0.993605 -0.083115
v 0.217189 0.993605 -0.000000
v 0.200656 0.993605 0.083115
v 0.153576 0.993605 0.153576
v 0.083115 0.993605 0.200656
v -0.000000 0.993605 0.217189
v -0.083115 0.993605 0.200656
v -0.153576 0.993605 0.153576
v -0.200656 0.993605 0.083115
v -0.217189 0.993605 -0.000000
v -0.200656 0.993605 -0.083115
v -0.153576 0.993605 -0.153576
v -0.083115 0.993605 -0.200656
v 0.059687 1.076676 -0.144097
v -0.000000 1.076676 -0.155969
v 0.110287 1.076676 -0.110287
v 0.144097 1.076676 -0.059687
v 0.155969 1.076676 -0.000000
v 0.144097 1.076676 0.059687
v 0.110287 1.076676 0.110287
v 0.059687 1.076676 0.144097
v -0.000000 1.076676 0.155969
v -0.059687 1.076676 0.144097
v -0.110287 1.076676 0.110287
v -0.144097 1.076676 0.059687
v -0.155969 1.076676 -0.000000
v -0.144097 1.076676 -0.059687
v -0.110287 1.076676 -0.110287
v -0.059687 1.076676 -0.144097
v 0.018318 1.210478 -0.044223
v -0.000000 1.210478 -0.047867
v 0.033847 1.210478 -0.033847
v 0.044223 1.210478 -0.018318
v 0.047867 1.210478 -0.000000
v 0.044223 1.210478 0.018318
v 0.033847 1.210478 0.033847
v 0.018318 1.210478 0.044223
v -0.000000 1.210478 0.047867
v -0.018318 1.210478 0.044223
v -0.033847 1.210478 0.033847
v -0.044223 1.210478 0.018318
v -0.047867 1.210478 -0.000000
v -0.044223 1.210478 -0.018318
v -0.033847 1.210478 -0.033847
v -0.018318 1.210478 -0.044223
v 0.028894 1.331762 -0.028894
v 0.050045 1.301849 -0.050045
v 0.057787 1.260988 -0.057787
v 0.050045 1.220126 -0.050045
v 0.028894 1.190213 -0.028894
v 0.040862 1.331762 0.000000
v 0.070774 1.301849 0.000000
v 0.081723 1.260988 0.000000
v 0.070774 1.220126 0.000000
v 0.040862 1.190213 0.000000
v 0.028894 1.331762 0.028894
v 0.050045 1.301849 0.050045
v 0.057787 1.260988 0.057787
v 0.050045 1.220126 0.050045
v 0.028894 1.190213 0.028894
v 0.000000 1.331762 0.040862
v 0.000000 1.301849 0.070774
v 0.000000 1.260988 0.081723
v 0.000000 1.220126 0.070774
v 0.000000 1.190213 0.040862
v 0.000000 1.342711 0.000000
v -0.028894 1.331762 0.028894
v -0.050045 1.301849 0.050045
v -0.057787 1.260988 0.057787
v -0.050045 1.220126 0.050045
v -0.028894 1.190213 0.028894
v 0.000000 1.179265 0.000000
v -0.040862 1.331762 0.000000
v -0.070774 1.301849 0.000000
v -0.081723 1.260988 0.000000
v -0.070774 1.220126 0.000000
v -0.040862 1.190213 0.000000
v -0.028894 1.331762 -0.028894
v -0.050045 1.301849 -0.050045
v -0.057787 1.260988 -0.057787
v -0.050045 1.220126 -0.050045
v -0.028894 1.190213 -0.028894
v 0.000000 1.331762 -0.040862
v 0.000000 1.301849 -0.070774
v 0.000000 1.260988 -0.081723
v 0.000000 1.220126 -0.070774
v 0.000000 1.190213 -0.040862
vn -0.0000 0.2035 -0.9791
vn -0.0000 0.4500 -0.8930
vn 0.3417 0.4500 -0.8250
vn 0.3747 0.2035 -0.9045
vn 0.6315 0.4500 -0.6315
vn 0.6923 0.2035 -0.6923
vn 0.8250 0.4500 -0.3417
vn 0.9045 0.2035 -0.3747
vn 0.8930 0.4500 -0.0000
vn 0.9791 0.2035 -0.0000
vn 0.8250 0.4500 0.3417
vn 0.9045 0.2035 0.3747
vn 0.6315 0.4500 0.6315
vn 0.6923 0.2035 0.6923
vn 0.3417 0.4500 0.8250
vn 0.3747 0.2035 0.9045
vn -0.0000 0.4500 0.8930
vn -0.0000 0.2035 0.9791
vn -0.3417 0.4500 0.8250
vn -0.3747 0.2035 0.9045
vn -0.6315 0.4500 0.6315
vn -0.6923 0.2035 0.6923
vn -0.8250 0.4500 0.3417
vn -0.9045 0.2035 0.3747
vn -0.8930 0.4500 -0.0000
vn -0.9791 0.2035 -0.0000
vn -0.8250 0.4500 -0.3417
vn -0.9045 0.2035 -0.3747
vn -0.6315 0.4500 -0.6315
vn -0.6923 0.2035 -0.6923
vn 0.8261 0.4477 -0.3422
vn 0.8942 0.4477 -0.0000
vn -0.3417 0.4500 -0.8250
vn -0.3747 0.2035 -0.9045
vn -0.0000 -1.0000 -0.0000
vn -0.0000 0.4477 0.8942
vn 0.3422 0.4477 0.8261
vn 0.3775 -0.1638 0.9114
vn -0.0000 -0.1638 0.9865
vn -0.3422 0.4477 0.8261
vn -0.8261 0.4477 -0.3422
vn -0.6323 0.4477 -0.6323
vn 0.3422 0.4477 -0.8261
vn 0.6323 0.4477 -0.6323
vn 0.6323 0.4477 0.6323
vn -0.8261 0.4477 0.3422
vn -0.8942 0.4477 -0.0000
vn 0.8261 0.4477 0.3422
vn -0.6323 0.4477 0.6323
vn -0.3422 0.4477 -0.8261
vn -0.0000 0.4477 -0.8942
vn -0.0000 -0.1638 -0.9865
vn 0.3775 -0.1638 -0.9114
vn -0.3775 -0.1638 -0.9114
vn -0.3775 -0.1638 0.9114
vn 0.6976 -0.1638 -0.6976
vn -0.6976 -0.1638 0.6976
vn 0.9114 -0.1638 -0.3775
vn -0.9114 -0.1638 0.3775
vn 0.9865 -0.1638 -0.0000
vn -0.9865 -0.1638 -0.0000
vn 0.9114 -0.1638 0.3775
vn -0.9114 -0.1638 -0.3775
vn 0.6976 -0.1638 0.6976
vn -0.6976 -0.1638 -0.6976
vn -0.0000 -0.2009 -0.9796
vn 0.3749 -0.2009 -0.9050
vn 0.6927 -0.2009 0.6927
vn 0.9050 -0.2009 0.3749
vn 0.8591 0.3679 0.3559
vn 0.6575 0.3679 0.6575
vn -0.3749 -0.2009 -0.9050
vn -0.0000 -0.2009 0.9796
vn -0.3749 -0.2009 0.9050
vn 0.6927 -0.2009 -0.6927
vn -0.6927 -0.2009 0.6927
vn 0.9050 -0.2009 -0.3749
vn -0.9050 -0.2009 0.3749
vn 0.9796 -0.2009 -0.0000
vn -0.9796 -0.2009 -0.0000
vn -0.9050 -0.2009 -0.3749
vn -0.6927 -0.2009 -0.6927
vn 0.3749 -0.2009 0.9050
vn -0.8591 0.3679 0.3559
vn -0.6575 0.3679 0.6575
vn -0.5600 0.6106 0.5600
vn -0.7317 0.6106 0.3031
vn -0.8591 0.3679 -0.3559
vn -0.6575 0.3679 -0.6575
vn 0.3559 0.3679 0.8591
vn -0.3559 0.3679 -0.8591
vn -0.0000 0.3679 0.9299
vn -0.0000 0.3679 -0.9299
vn 0.3559 0.3679 -0.8591
vn -0.3559 0.3679 0.8591
vn 0.6575 0.3679 -0.6575
vn 0.8591 0.3679 -0.3559
vn 0.9299 0.3679 -0.0000
vn -0.9299 0.3679 -0.0000
vn -0.0000 0.6106 -0.7920
vn -0.3031 0.6106 -0.7317
vn -0.2977 0.6285 -0.7186
vn -0.0000 0.6285 -0.7778
vn 0.7317 0.6106 -0.3031
vn 0.7920 0.6106 -0.0000
vn -0.7920 0.6106 -0.0000
vn 0.7317 0.6106 0.3031
vn -0.7317 0.6106 -0.3031
vn 0.5600 0.6106 0.5600
vn -0.5600 0.6106 -0.5600
vn 0.3031 0.6106 0.7317
vn -0.0000 0.6106 0.7920
vn 0.3031 0.6106 -0.7317
vn -0.3031 0.6106 0.7317
vn 0.5600 0.6106 -0.5600
vn -0.0000 1.0000 -0.0000
vn -0.0000 0.6285 0.7778
vn -0.2977 0.6285 0.7186
vn 0.2977 0.6285 -0.7186
vn 0.5500 0.6285 -0.5500
vn -0.5500 0.6285 0.5500
vn 0.7186 0.6285 -0.2977
vn -0.7186 0.6285 0.2977
vn 0.7778 0.6285 -0.0000
vn -0.7778 0.6285 -0.0000
vn 0.7186 0.6285 0.2977
vn -0.7186 0.6285 -0.2977
vn 0.5500 0.6285 0.5500
vn -0.5500 0.6285 -0.5500
vn 0.2977 0.6285 0.7186
vn 0.2811 -0.6786 -0.6786
vn 0.3347 -0.4849 -0.8080
vn 0.3827 -0.0000 -0.9239
vn 0.3347 0.4849 -0.8080
vn -0.0000 0.9659 -0.2588
vn 0.1830 0.9659 -0.1830
vn -0.0000 -0.9659 -0.2588
vn 0.1830 -0.9659 -0.1830
vn 0.2811 0.6786 -0.6786
vn 0.2588 0.9659 -0.0000
vn 0.2588 -0.9659 -0.0000
vn 0.8080 -0.4849 -0.3347
vn 0.9239 -0.0000 -0.3827
vn 0.8080 0.4849 -0.3347
vn 0.6786 0.6786 -0.2811
vn 0.6786 -0.6786 -0.2811
vn 0.1830 -0.9659 0.1830
vn 0.8080 -0.4849 0.3347
vn 0.9239 -0.0000 0.3827
vn 0.8080 0.4849 0.3347
vn 0.6786 0.6786 0.2811
vn 0.6786 -0.6786 0.2811
vn 0.1830 0.9659 0.1830
vn -0.0000 -0.9659 0.2588
vn 0.3347 -0.4849 0.8080
vn 0.3827 -0.0000 0.9239
vn 0.3347 0.4849 0.8080
vn 0.2811 0.6786 0.6786
vn 0.2811 -0.6786 0.6786
vn -0.0000 0.9659 0.2588
vn -0.1830 -0.9659 0.1830
vn -0.3347 -0.4849 0.8080
vn -0.3827 -0.0000 0.9239
vn -0.3347 0.4849 0.8080
vn -0.2811 0.6786 0.6786
vn -0.2811 -0.6786 0.6786
vn -0.1830 0.9659 0.1830
vn -0.8080 -0.4849 0.3347
vn -0.9239 -0.0000 0.3827
vn -0.8080 0.4849 0.3347
vn -0.6786 0.6786 0.2811
vn -0.6786 -0.6786 0.2811
vn -0.2588 0.9659 -0.0000
vn -0.2588 -0.9659 -0.0000
vn -0.8080 0.4849 -0.3347
vn -0.6786 0.6786 -0.2811
vn -0.6786 -0.6786 -0.2811
vn -0.8080 -0.4849 -0.3347
vn -0.9239 -0.0000 -0.3827
vn -0.1830 0.9659 -0.1830
vn -0.1830 -0.9659 -0.1830
vn -0.2811 -0.6786 -0.6786
vn -0.3347 -0.4849 -0.8080
vn -0.3827 -0.0000 -0.9239
vn -0.3347 0.4849 -0.8080
vn -0.2811 0.6786 -0.6786
vt 1.000000 0.500000
vt 1.000000 1.000000
vt 0.937500 1.000000
vt 0.937500 0.500000
vt 0.875000 1.000000
vt 0.875000 0.500000
vt 0.812500 1.000000
vt 0.812500 0.500000
vt 0.750000 1.000000
vt 0.750000 0.500000
vt 0.687500 1.000000
vt 0.687500 0.500000
vt 0.625000 1.000000
vt 0.625000 0.500000
vt 0.562500 1.000000
vt 0.562500 0.500000
vt 0.500000 1.000000
vt 0.500000 0.500000
vt 0.437500 1.000000
vt 0.437500 0.500000
vt 0.375000 1.000000
vt 0.375000 0.500000
vt 0.312500 1.000000
vt 0.312500 0.500000
vt 0.250000 1.000000
vt 0.250000 0.500000
vt 0.187500 1.000000
vt 0.187500 0.500000
vt 0.125000 1.000000
vt 0.125000 0.500000
vt 0.062500 1.000000
vt 0.062500 0.500000
vt 0.000000 1.000000
vt 0.000000 0.500000
vt 0.750000 0.490000
vt 0.841844 0.471731
vt 0.919706 0.419706
vt 0.971731 0.341844
vt 0.990000 0.250000
vt 0.971731 0.158156
vt 0.919706 0.080294
vt 0.841844 0.028269
vt 0.750000 0.010000
vt 0.658156 0.028269
vt 0.580294 0.080294
vt 0.528269 0.158156
vt 0.510000 0.250000
vt 0.528269 0.341844
vt 0.580294 0.419706
vt 0.658156 0.471731
vt 0.750000 0.166667
vt 0.750000 0.333333
vt 0.625000 0.333333
vt 0.625000 0.166667
vt 0.750000 0.666667
vt 0.625000 0.666667
vt 0.750000 0.833333
vt 0.625000 0.833333
vt 0.687500 0.000000
vt 0.500000 0.833333
vt 0.562500 0.000000
vt 0.500000 0.166667
vt 0.500000 0.333333
vt 0.500000 0.666667
vt 0.437500 0.000000
vt 0.375000 0.166667
vt 0.375000 0.333333
vt 0.375000 0.833333
vt 0.375000 0.666667
vt 0.312500 0.000000
vt 0.250000 0.166667
vt 0.250000 0.333333
vt 0.250000 0.833333
vt 0.250000 0.666667
vt 0.187500 0.000000
vt 0.125000 0.166667
vt 0.125000 0.333333
vt 0.125000 0.833333
vt 0.125000 0.666667
vt 0.000000 0.333333
vt 0.000000 0.833333
vt 0.000000 0.666667
vt 0.000000 0.166667
vt 0.062500 1.000000
vt 0.062500 0.000000
vt 1.000000 0.666667
vt 1.000000 0.833333
vt 0.875000 0.833333
vt 0.875000 0.666667
vt 1.000000 0.166667
vt 1.000000 0.333333
vt 0.875000 0.333333
vt 0.875000 0.166667
vt 0.937500 0.000000
vt 0.812500 0.000000
s 1
f 1/1/1 2/2/2 4/3/3 3/4/4
f 3/4/4 4/3/3 6/5/5 5/6/6
f 5/6/6 6/5/5 8/7/7 7/8/8
f 7/8/8 8/7/7 10/9/9 9/10/10
f 9/10/10 10/9/9 12/11/11 11/12/12
f 11/12/12 12/11/11 14/13/13 13/14/14
f 13/14/14 14/13/13 16/15/15 15/16/16
f 15/16/16 16/15/15 18/17/17 17/18/18
f 17/18/18 18/17/17 20/19/19 19/20/20
f 19/20/20 20/19/19 22/21/21 21/22/22
f 21/22/22 22/21/21 24/23/23 23/24/24
f 23/24/24 24/23/23 26/25/25 25/26/26
f 25/26/26 26/25/25 28/27/27 27/28/28
f 27/28/28 28/27/27 30/29/29 29/30/30
f 10/9/9 8/7/7 36/7/31 37/9/32
f 29/30/30 30/29/29 32/31/33 31/32/34
f 31/32/34 32/31/33 2/33/2 1/34/1
f 1/35/35 3/36/35 5/37/35 7/38/35 9/39/35 11/40/35 13/41/35 15/42/35 17/43/35 19/44/35 21/45/35 23/46/35 25/47/35 27/48/35 29/49/35 31/50/35
f 41/17/36 40/15/37 56/15/38 57/17/39
f 20/19/19 18/17/17 41/17/36 42/19/40
f 30/29/29 28/27/27 46/27/41 47/29/42
f 6/5/5 4/3/3 33/3/43 35/5/44
f 16/15/15 14/13/13 39/13/45 40/15/37
f 26/25/25 24/23/23 44/23/46 45/25/47
f 12/11/11 10/9/9 37/9/32 38/11/48
f 22/21/21 20/19/19 42/19/40 43/21/49
f 32/31/33 30/29/29 47/29/42 48/31/50
f 8/7/7 6/5/5 35/5/44 36/7/31
f 18/17/17 16/15/15 40/15/37 41/17/36
f 4/3/3 2/2/2 34/2/51 33/3/43
f 28/27/27 26/25/25 45/25/47 46/27/41
f 14/13/13 12/11/11 38/11/48 39/13/45
f 24/23/23 22/21/21 43/21/49 44/23/46
f 2/33/2 32/31/33 48/31/50 34/33/51
f 33/3/43 34/2/51 50/2/52 49/3/53
f 34/33/51 48/31/50 64/31/54 50/33/52
f 42/19/40 41/17/36 57/17/39 58/19/55
f 35/5/44 33/3/43 49/3/53 51/5/56
f 43/21/49 42/19/40 58/19/55 59/21/57
f 36/7/31 35/5/44 51/5/56 52/7/58
f 44/23/46 43/21/49 59/21/57 60/23/59
f 37/9/32 36/7/31 52/7/58 53/9/60
f 45/25/47 44/23/46 60/23/59 61/25/61
f 38/11/48 37/9/32 53/9/60 54/11/62
f 46/27/41 45/25/47 61/25/61 62/27/63
f 39/13/45 38/11/48 54/11/62 55/13/64
f 47/29/42 46/27/41 62/27/63 63/29/65
f 40/15/37 39/13/45 55/13/64 56/15/38
f 48/31/50 47/29/42 63/29/65 64/31/54
f 49/3/53 50/2/52 66/2/66 65/3/67
f 71/13/68 70/11/69 86/11/70 87/13/71
f 50/33/52 64/31/54 80/31/72 66/33/66
f 58/19/55 57/17/39 73/17/73 74/19/74
f 51/5/56 49/3/53 65/3/67 67/5/75
f 59/21/57 58/19/55 74/19/74 75/21/76
f 52/7/58 51/5/56 67/5/75 68/7/77
f 60/23/59 59/21/57 75/21/76 76/23/78
f 53/9/60 52/7/58 68/7/77 69/9/79
f 61/25/61 60/23/59 76/23/78 77/25/80
f 54/11/62 53/9/60 69/9/79 70/11/69
f 62/27/63 61/25/61 77/25/80 78/27/81
f 55/13/64 54/11/62 70/11/69 71/13/68
f 63/29/65 62/27/63 78/27/81 79/29/82
f 56/15/38 55/13/64 71/13/68 72/15/83
f 64/31/54 63/29/65 79/29/82 80/31/72
f 57/17/39 56/15/38 72/15/83 73/17/73
f 92/23/84 91/21/85 107/21/86 108/23/87
f 79/29/82 78/27/81 94/27/88 95/29/89
f 72/15/83 71/13/68 87/13/71 88/15/90
f 80/31/72 79/29/82 95/29/89 96/31/91
f 73/17/73 72/15/83 88/15/90 89/17/92
f 65/3/67 66/2/66 82/2/93 81/3/94
f 66/33/66 80/31/72 96/31/91 82/33/93
f 74/19/74 73/17/73 89/17/92 90/19/95
f 67/5/75 65/3/67 81/3/94 83/5/96
f 75/21/76 74/19/74 90/19/95 91/21/85
f 68/7/77 67/5/75 83/5/96 84/7/97
f 76/23/78 75/21/76 91/21/85 92/23/84
f 69/9/79 68/7/77 84/7/97 85/9/98
f 77/25/80 76/23/78 92/23/84 93/25/99
f 70/11/69 69/9/79 85/9/98 86/11/70
f 78/27/81 77/25/80 93/25/99 94/27/88
f 98/33/100 112/31/101 128/31/102 114/33/103
f 85/9/98 84/7/97 100/7/104 101/9/105
f 93/25/99 92/23/84 108/23/87 109/25/106
f 86/11/70 85/9/98 101/9/105 102/11/107
f 94/27/88 93/25/99 109/25/106 110/27/108
f 87/13/71 86/11/70 102/11/107 103/13/109
f 95/29/89 94/27/88 110/27/108 111/29/110
f 88/15/90 87/13/71 103/13/109 104/15/111
f 96/31/91 95/29/89 111/29/110 112/31/101
f 89/17/92 88/15/90 104/15/111 105/17/112
f 81/3/94 82/2/93 98/2/100 97/3/113
f 82/33/93 96/31/91 112/31/101 98/33/100
f 90/19/95 89/17/92 105/17/112 106/19/114
f 83/5/96 81/3/94 97/3/113 99/5/115
f 91/21/85 90/19/95 106/19/114 107/21/86
f 84/7/97 83/5/96 99/5/115 100/7/104
f 113/3/116 114/33/116 128/31/116 127/29/116 126/27/116 125/25/116 124/23/116 123/21/116 122/19/116 121/17/116 120/15/116 119/13/116 118/11/116 117/9/116 116/7/116 115/5/116
f 106/19/114 105/17/112 121/17/117 122/19/118
f 99/5/115 97/3/113 113/3/119 115/5/120
f 107/21/86 106/19/114 122/19/118 123/21/121
f 100/7/104 99/5/115 115/5/120 116/7/122
f 108/23/87 107/21/86 123/21/121 124/23/123
f 101/9/105 100/7/104 116/7/122 117/9/124
f 109/25/106 108/23/87 124/23/123 125/25/125
f 102/11/107 101/9/105 117/9/124 118/11/126
f 110/27/108 109/25/106 125/25/125 126/27/127
f 103/13/109 102/11/107 118/11/126 119/13/128
f 111/29/110 110/27/108 126/27/127 127/29/129
f 104/15/111 103/13/109 119/13/128 120/15/130
f 112/31/101 111/29/110 127/29/129 128/31/102
f 105/17/112 104/15/111 120/15/130 121/17/117
f 97/3/113 98/2/100 114/2/103 113/3/119
f 170/51/131 169/52/132 132/53/132 133/54/131
f 168/10/133 167/55/134 130/56/134 131/14/133
f 166/57/135 149/11/116 129/58/136
f 155/59/35 170/51/137 133/54/138
f 169/52/132 168/10/133 131/14/133 132/53/132
f 167/55/134 166/57/139 129/58/139 130/56/134
f 129/58/136 149/15/116 134/60/140
f 155/61/35 133/54/138 138/62/141
f 132/53/142 131/14/143 136/18/143 137/63/142
f 130/56/144 129/58/145 134/60/145 135/64/144
f 133/54/146 132/53/142 137/63/142 138/62/146
f 131/14/143 130/56/144 135/64/144 136/18/143
f 155/65/35 138/62/141 143/66/147
f 137/63/148 136/18/149 141/22/149 142/67/148
f 135/64/150 134/60/151 139/68/151 140/69/150
f 138/62/152 137/63/148 142/67/148 143/66/152
f 136/18/149 135/64/150 140/69/150 141/22/149
f 134/60/140 149/19/116 139/68/153
f 155/70/35 143/66/147 148/71/154
f 142/67/155 141/22/156 146/26/156 147/72/155
f 140/69/157 139/68/158 144/73/158 145/74/157
f 143/66/159 142/67/155 147/72/155 148/71/159
f 141/22/156 140/69/157 145/74/157 146/26/156
f 139/68/153 149/23/116 144/73/160
f 155/75/35 148/71/154 154/76/161
f 147/72/162 146/26/163 152/30/163 153/77/162
f 145/74/164 144/73/165 150/78/165 151/79/164
f 148/71/166 147/72/162 153/77/162 154/76/166
f 146/26/163 145/74/164 151/79/164 152/30/163
f 144/73/160 149/27/116 150/78/167
f 153/77/168 152/30/169 158/34/169 159/80/168
f 151/79/170 150/78/171 156/81/171 157/82/170
f 154/76/172 153/77/168 159/80/168 160/83/172
f 152/30/169 151/79/170 157/82/170 158/34/169
f 150/78/167 149/84/116 156/81/173
f 155/85/35 154/76/161 160/83/174
f 157/86/175 156/87/176 161/88/176 162/89/175
f 160/90/177 159/91/178 164/92/178 165/93/177
f 158/1/179 157/86/175 162/89/175 163/6/179
f 156/87/173 149/3/116 161/88/180
f 155/94/35 160/90/174 165/93/181
f 159/91/178 158/1/179 163/6/179 164/92/178
f 165/93/182 164/92/183 169/52/183 170/51/182
f 163/6/184 162/89/185 167/55/185 168/10/184
f 161/88/180 149/7/116 166/57/135
f 155/95/35 165/93/181 170/51/137
f 164/92/183 163/6/184 168/10/184 169/52/183
f 162/89/185 161/88/186 166/57/186 167/55/185
