# Blender 4.4.3
# www.blender.org
o Cylinder
v 0.000000 0.004618 -0.328244
v 0.000000 0.251043 -0.283745
v 0.125614 0.004618 -0.303258
v 0.108584 0.251043 -0.262146
v 0.232104 0.004618 -0.232104
v 0.200638 0.251043 -0.200638
v 0.303258 0.004618 -0.125614
v 0.262146 0.251043 -0.108584
v 0.328244 0.004618 0.000000
v 0.283745 0.251043 0.000000
v 0.303258 0.004618 0.125614
v 0.262146 0.251043 0.108584
v 0.232104 0.004618 0.232104
v 0.200638 0.251043 0.200638
v 0.125614 0.004618 0.303258
v 0.108584 0.251043 0.262146
v 0.000000 0.004618 0.328244
v 0.000000 0.251043 0.283745
v -0.125614 0.004618 0.303258
v -0.108584 0.251043 0.262146
v -0.232104 0.004618 0.232104
v -0.200638 0.251043 0.200638
v -0.303258 0.004618 0.125614
v -0.262146 0.251043 0.108584
v -0.328244 0.004618 0.000000
v -0.283745 0.251043 0.000000
v -0.303258 0.004618 -0.125614
v -0.262146 0.251043 -0.108584
v -0.232104 0.004618 -0.232104
v -0.200638 0.251043 -0.200638
v -0.125614 0.004618 -0.303258
v -0.108584 0.251043 -0.262146
v -0.098684 0.946910 0.131552
v -0.116112 1.099405 -0.124403
v 0.096049 0.946910 0.131552
v 0.095545 1.099405 -0.124403
v -0.114348 0.492385 0.140603
v -0.152012 0.438295 -0.219338
v 0.118256 0.435627 -0.224213
v 0.143290 0.489717 0.135728
v -0.089978 0.783637 -0.036183
v -0.144222 0.727472 -0.244775
v 0.121074 0.726961 -0.245628
v 0.113201 0.783269 -0.036797
v -0.039933 0.731152 0.252437
v -0.047849 0.813418 0.299243
v 0.064805 0.813418 0.299243
v 0.064910 0.731152 0.252437
v 0.140763 0.245319 0.198674
v -0.114919 0.247954 0.204343
v 0.109840 0.239643 -0.187346
v -0.145842 0.242277 -0.181677
v -0.125538 0.876048 0.041854
v -0.126788 1.060509 -0.014895
v -0.011180 1.146260 -0.132342
v 0.113033 1.060508 -0.014895
v -0.003227 0.972609 0.165488
v -0.141003 0.559759 -0.237543
v 0.113885 0.558212 -0.240178
v 0.121453 0.648231 0.006444
v 0.020349 0.501193 0.205654
v 0.180264 0.462172 -0.045156
v -0.022756 0.426819 -0.289264
v -0.182671 0.465840 -0.038454
v -0.095446 0.649762 0.009050
v -0.146145 0.958296 -0.196825
v 0.124592 0.958232 -0.196932
v 0.133683 0.876001 0.041776
v 0.016352 0.761973 -0.006281
v 0.159757 0.757904 -0.154158
v -0.015510 0.715472 -0.278593
v -0.161395 0.758590 -0.153014
v -0.054889 0.764032 0.293413
v 0.008761 0.816742 0.314431
v 0.076479 0.764032 0.293413
v 0.012828 0.711321 0.272396
v -0.058040 0.764361 0.131837
v -0.072446 0.861532 0.242627
v 0.081781 0.861532 0.242627
v 0.083880 0.764330 0.131786
v 0.016672 0.229293 0.250627
v 0.156969 0.225612 0.006045
v -0.021933 0.225177 -0.231439
v -0.162230 0.228858 0.013144
v 0.129188 0.316447 -0.226834
v -0.169235 0.319616 -0.220413
v -0.132520 0.339813 0.223739
v 0.164324 0.336644 0.217318
v -0.168418 0.929066 -0.096823
v -0.013309 0.973720 -0.230675
v 0.160822 0.928983 -0.096962
v -0.092537 0.812682 0.187951
v -0.008107 1.110663 0.013870
v 0.017992 0.662877 0.054488
v 0.161749 0.603374 -0.117996
v -0.018483 0.541964 -0.284726
v -0.162486 0.605498 -0.114380
v 0.011448 0.746711 0.330292
v 0.109905 0.812674 0.187939
v 0.014567 0.744617 0.120100
v 0.003318 0.879202 0.263936
v -0.026886 0.312908 -0.308279
v -0.002821 0.192475 0.011894
v 0.022747 0.340086 0.305400
v -0.207666 0.328681 0.002999
v 0.203527 0.324313 -0.005878
v 0.049217 0.989237 -0.030107
v 0.125737 1.172534 -0.003528
v 0.017692 1.018769 -0.075291
v 0.120175 1.189774 -0.022721
v 0.141131 0.984950 -0.097039
v 0.157463 1.156820 -0.008406
v 0.109606 1.014482 -0.142223
v 0.151901 1.174060 -0.027599
v -0.072888 0.989237 -0.030107
v -0.149409 1.172534 -0.003528
v -0.041363 1.018769 -0.075291
v -0.143847 1.189774 -0.022721
v -0.164802 0.984950 -0.097039
v -0.181135 1.156820 -0.008406
v -0.133277 1.014482 -0.142223
v -0.175573 1.174060 -0.027599
vn -0.0000 0.1777 -0.9841
vn 0.3766 0.1777 -0.9092
vn 0.6959 0.1777 -0.6959
vn 0.9092 0.1777 -0.3766
vn 0.9841 0.1777 -0.0000
vn 0.9092 0.1777 0.3766
vn 0.6959 0.1777 0.6959
vn 0.3766 0.1777 0.9092
vn -0.0000 0.1777 0.9841
vn -0.3766 0.1777 0.9092
vn -0.6959 0.1777 0.6959
vn -0.9092 0.1777 0.3766
vn -0.9841 0.1777 -0.0000
vn -0.9092 0.1777 -0.3766
vn -0.6959 0.1777 -0.6959
vn -0.0000 1.0000 -0.0000
vn -0.3766 0.1777 -0.9092
vn -0.0000 -1.0000 -0.0000
vn -0.9160 -0.2680 0.2987
vn -0.9500 -0.1651 0.2650
vn -0.9962 0.0403 0.0768
vn -0.9008 -0.0235 0.4337
vn -0.9580 0.0758 0.2767
vn -0.9722 0.2306 0.0399
vn -0.9569 0.2845 -0.0580
vn -0.9742 0.1975 -0.1093
vn -0.9815 0.0121 -0.1911
vn -0.9843 -0.0137 -0.1762
vn -0.2749 0.1058 -0.9556
vn -0.2623 0.3205 -0.9102
vn -0.0057 0.3763 -0.9265
vn -0.0115 0.0822 -0.9965
vn -0.2725 0.4815 -0.8330
vn 0.2646 0.4787 -0.8372
vn 0.2510 0.3194 -0.9137
vn 0.2543 0.1033 -0.9616
vn 0.9331 -0.0194 -0.3590
vn 0.9437 0.2517 -0.2147
vn 0.9916 0.1274 -0.0208
vn 0.9313 0.0399 -0.3622
vn 0.9327 0.3364 -0.1298
vn 0.9540 0.2989 -0.0222
vn 0.9475 0.1917 0.2560
vn 0.9737 -0.0330 0.2253
vn 0.9571 0.0047 0.2897
vn 0.9611 -0.1786 0.2107
vn -0.9486 -0.2569 0.1848
vn -0.9538 0.0529 0.2958
vn -0.8598 -0.5096 0.0341
vn -0.8457 -0.5335 0.0154
vn -0.9114 -0.3930 0.1222
vn -0.9277 0.0269 0.3723
vn 0.3990 0.8885 0.2267
vn 0.4093 0.8445 0.3455
vn 0.4130 0.7923 0.4492
vn -0.4050 0.8810 0.2446
vn -0.4213 0.7807 0.4616
vn -0.4168 0.8325 0.3650
vn -0.3938 0.6736 0.6255
vn -0.4007 0.6729 0.6218
vn 0.3898 0.6948 0.6044
vn 0.3813 0.6972 0.6070
vn 0.4478 0.5427 0.7106
vn 0.3850 0.5333 0.7532
vn 0.3743 0.5083 0.7756
vn 0.4460 0.5478 0.7078
vn 0.3239 0.3955 0.8595
vn -0.3261 0.5204 0.7892
vn -0.2831 0.4011 0.8712
vn -0.3330 0.5404 0.7727
vn -0.3864 0.5568 0.7353
vn -0.3868 0.5554 0.7362
vn 0.9429 0.0332 -0.3316
vn 0.9389 -0.0401 -0.3419
vn 0.9357 -0.0506 -0.3491
vn 0.9882 0.1340 -0.0739
vn 0.9525 0.2077 0.2225
vn 0.9509 0.1673 0.2603
vn 0.9573 0.2327 0.1714
vn -0.4575 0.0424 -0.8882
vn -0.3565 -0.0123 -0.9342
vn -0.3773 -0.0162 -0.9259
vn -0.4640 0.0561 -0.8841
vn 0.3355 -0.0287 -0.9416
vn 0.3192 -0.0224 -0.9474
vn 0.4106 0.0331 -0.9112
vn 0.4056 0.0217 -0.9138
vn -0.9005 0.3042 0.3108
vn -0.8847 0.2264 0.4075
vn -0.8876 0.2786 0.3669
vn -0.9751 0.2070 0.0798
vn -0.9852 -0.0022 -0.1715
vn -0.9838 0.0283 -0.1769
vn -0.9786 0.0999 -0.1797
vn 0.4659 -0.7499 0.4698
vn 0.3801 0.1227 0.9168
vn 0.3475 0.4224 0.8371
vn 0.3430 0.4470 0.8262
vn -0.3795 0.0912 0.9207
vn -0.3483 0.4043 0.8457
vn -0.3498 0.3959 0.8491
vn -0.4554 -0.7660 0.4537
vn 0.9720 -0.1296 0.1962
vn 0.9097 -0.4122 0.0507
vn 0.9372 0.1866 0.2947
vn 0.9176 0.1433 0.3708
vn 0.9442 -0.2957 0.1449
vn 0.8878 -0.4585 0.0398
vn -0.2148 -0.9716 -0.0989
vn -0.2483 -0.9563 -0.1545
vn -0.2424 -0.9593 -0.1447
vn 0.2284 -0.9689 -0.0951
vn 0.2541 -0.9569 -0.1403
vn 0.2600 -0.9538 -0.1507
vn 0.2904 -0.9346 -0.2056
vn -0.2816 -0.9360 -0.2112
vn 0.3363 0.6840 0.6473
vn 0.3240 0.6747 0.6632
vn -0.3349 0.6474 0.6846
vn -0.3462 0.6553 0.6713
vn -0.4830 -0.2704 -0.8328
vn -0.4853 -0.2516 -0.8374
vn 0.4214 -0.2650 -0.8673
vn 0.4215 -0.2649 -0.8673
vn 0.3605 -0.5593 -0.7465
vn -0.4174 -0.5682 -0.7092
vn 0.1941 -0.9728 0.1260
vn -0.2070 -0.9655 0.1577
vn -0.2021 -0.9741 -0.1013
vn 0.1765 -0.9755 -0.1312
vn 0.5068 0.0744 0.8589
vn 0.5067 0.0703 0.8593
vn -0.4438 0.1005 0.8905
vn -0.4438 0.0882 0.8918
vn -0.4017 -0.3348 0.8524
vn 0.4480 -0.3625 0.8173
vn -0.9930 -0.0837 0.0834
vn -0.9503 -0.0177 0.3108
vn -0.9779 -0.1392 -0.1560
vn -0.9130 -0.3888 -0.1237
vn -0.9296 -0.3580 0.0874
vn -0.9044 -0.3115 0.2917
vn 0.9893 -0.1296 -0.0677
vn 0.9365 -0.1753 -0.3037
vn 0.9847 -0.0643 0.1620
vn 0.9258 -0.3469 0.1501
vn 0.9209 -0.3852 -0.0595
vn 0.8754 -0.4057 -0.2627
vn -0.7530 0.2440 0.6111
vn -0.3552 0.5411 -0.7623
vn 0.8935 0.1090 -0.4355
vn 0.4187 -0.3774 0.8260
vn -0.3051 -0.8806 -0.3626
vn 0.4411 0.7274 0.5256
vn 0.7530 0.2440 0.6111
vn 0.3552 0.5411 -0.7623
vn -0.8935 0.1090 -0.4355
vn -0.4187 -0.3774 0.8260
vn 0.3051 -0.8806 -0.3626
vn -0.4411 0.7274 0.5256
vt 1.000000 0.500000
vt 1.000000 1.000000
vt 0.937500 1.000000
vt 0.937500 0.500000
vt 0.875000 1.000000
vt 0.875000 0.500000
vt 0.812500 1.000000
vt 0.812500 0.500000
vt 0.750000 1.000000
vt 0.750000 0.500000
vt 0.687500 1.000000
vt 0.687500 0.500000
vt 0.625000 1.000000
vt 0.625000 0.500000
vt 0.562500 1.000000
vt 0.562500 0.500000
vt 0.500000 1.000000
vt 0.500000 0.500000
vt 0.437500 1.000000
vt 0.437500 0.500000
vt 0.375000 1.000000
vt 0.375000 0.500000
vt 0.312500 1.000000
vt 0.312500 0.500000
vt 0.250000 1.000000
vt 0.250000 0.500000
vt 0.187500 1.000000
vt 0.187500 0.500000
vt 0.125000 1.000000
vt 0.125000 0.500000
vt 0.341844 0.471731
vt 0.250000 0.490000
vt 0.158156 0.471731
vt 0.080294 0.419706
vt 0.028269 0.341844
vt 0.010000 0.250000
vt 0.028269 0.158156
vt 0.080294 0.080294
vt 0.158156 0.028269
vt 0.250000 0.010000
vt 0.341844 0.028269
vt 0.419706 0.080294
vt 0.471731 0.158156
vt 0.490000 0.250000
vt 0.471731 0.341844
vt 0.419706 0.419706
vt 0.062500 1.000000
vt 0.062500 0.500000
vt 0.000000 1.000000
vt 0.000000 0.500000
vt 0.750000 0.490000
vt 0.841844 0.471731
vt 0.919706 0.419706
vt 0.971731 0.341844
vt 0.990000 0.250000
vt 0.971731 0.158156
vt 0.919706 0.080294
vt 0.841844 0.028269
vt 0.750000 0.010000
vt 0.658156 0.028269
vt 0.580294 0.080294
vt 0.528269 0.158156
vt 0.510000 0.250000
vt 0.528269 0.341844
vt 0.580294 0.419706
vt 0.658156 0.471731
vt 0.562500 0.000000
vt 0.593750 0.034722
vt 0.593750 0.128472
vt 0.562500 0.125868
vt 0.625000 0.000000
vt 0.625000 0.125000
vt 0.625000 0.250000
vt 0.593750 0.250000
vt 0.562500 0.250000
vt 0.593750 0.375000
vt 0.562500 0.375000
vt 0.625000 0.375000
vt 0.594401 0.500000
vt 0.562500 0.500000
vt 0.597005 0.620660
vt 0.562500 0.624132
vt 0.653646 0.619792
vt 0.656250 0.708333
vt 0.597873 0.712674
vt 0.562500 0.750000
vt 0.593750 0.003472
vt 0.625000 0.000000
vt 0.562500 0.000000
vt 0.593750 0.000000
vt 0.750000 0.500000
vt 0.753255 0.620660
vt 0.875000 0.500000
vt 0.875000 0.625000
vt 0.875000 0.750000
vt 0.753906 0.711806
vt 0.510417 0.750000
vt 0.532335 0.750000
vt 0.531467 0.875000
vt 0.509549 0.875000
vt 0.554036 0.875868
vt 0.531250 1.000000
vt 0.510417 0.500000
vt 0.532552 0.500000
vt 0.532552 0.625000
vt 0.510417 0.625000
vt 0.510417 0.250000
vt 0.532552 0.250000
vt 0.532552 0.375000
vt 0.510417 0.375000
vt 0.500000 0.000000
vt 0.531250 0.000000
vt 0.532335 0.125000
vt 0.509549 0.125000
vt 0.578125 0.812500
vt 0.596378 0.791763
vt 0.595004 0.880015
vt 0.572941 0.882909
vt 0.625000 0.750000
vt 0.625000 0.875000
vt 0.625000 1.000000
vt 0.593750 1.000000
vt 0.598259 0.754147
vt 0.572724 0.790895
vt 0.653646 0.745660
vt 0.563754 0.880016
vt 0.562500 1.000000
vt 0.753255 0.745660
vt 0.875000 0.750000
vt 0.875000 0.750000
vt 0.750000 0.750000
vt 0.501302 0.375000
vt 0.501302 0.253279
vt 0.501302 0.496721
vt 0.500000 0.479167
vt 0.500000 0.375000
vt 0.500000 0.270833
vt 0.500000 0.750000
vt 0.500000 0.375000
vt 0.500000 0.554012
vt 0.500000 0.195988
vt 0.501085 0.875000
vt 0.501302 0.748264
vt 0.500000 1.000000
vt 0.500000 0.875000
vt 0.501085 0.132330
vt 0.500000 0.000000
vt 0.501302 0.617670
vt 0.375000 0.000000
vt 0.375000 0.250000
vt 0.375000 0.750000
vt 0.125000 0.750000
s 1
f 1/1/1 2/2/1 4/3/2 3/4/2
f 3/4/2 4/3/2 6/5/3 5/6/3
f 5/6/3 6/5/3 8/7/4 7/8/4
f 7/8/4 8/7/4 10/9/5 9/10/5
f 9/10/5 10/9/5 12/11/6 11/12/6
f 11/12/6 12/11/6 14/13/7 13/14/7
f 13/14/7 14/13/7 16/15/8 15/16/8
f 15/16/8 16/15/8 18/17/9 17/18/9
f 17/18/9 18/17/9 20/19/10 19/20/10
f 19/20/10 20/19/10 22/21/11 21/22/11
f 21/22/11 22/21/11 24/23/12 23/24/12
f 23/24/12 24/23/12 26/25/13 25/26/13
f 25/26/13 26/25/13 28/27/14 27/28/14
f 27/28/14 28/27/14 30/29/15 29/30/15
f 4/31/16 2/32/16 32/33/16 30/34/16 28/35/16 26/36/16 24/37/16 22/38/16 20/39/16 18/40/16 16/41/16 14/42/16 12/43/16 10/44/16 8/45/16 6/46/16
f 29/30/15 30/29/15 32/47/17 31/48/17
f 31/48/17 32/47/17 2/49/1 1/50/1
f 1/51/18 3/52/18 5/53/18 7/54/18 9/55/18 11/56/18 13/57/18 15/58/18 17/59/18 19/60/18 21/61/18 23/62/18 25/63/18 27/64/18 29/65/18 31/66/18
f 41/67/19 53/68/20 89/69/21 72/70/22
f 53/68/20 33/71/23 54/72/24 89/69/21
f 89/69/21 54/72/24 34/73/25 66/74/26
f 72/70/27 89/69/21 66/74/26 42/75/28
f 42/75/29 66/74/30 90/76/31 71/77/32
f 66/74/30 34/73/33 55/78/33 90/76/31
f 90/76/31 55/78/34 36/14/34 67/79/35
f 71/77/32 90/76/31 67/79/35 43/80/36
f 43/80/37 67/79/38 91/81/39 70/82/40
f 67/79/38 36/14/41 56/83/42 91/81/39
f 91/81/39 56/83/42 35/84/43 68/85/44
f 70/82/45 91/81/39 68/85/44 44/86/46
f 33/71/23 53/68/20 92/87/47 78/88/48
f 53/68/20 41/67/19 77/89/49 92/87/47
f 92/87/47 77/89/49 45/89/50 73/90/51
f 78/88/48 92/87/47 73/90/51 46/88/52
f 36/14/53 55/91/53 93/92/54 56/83/55
f 55/91/56 34/93/56 54/94/57 93/92/58
f 93/92/58 54/94/57 33/95/59 57/96/60
f 56/83/55 93/92/54 57/96/61 35/84/62
f 40/97/63 60/98/64 94/99/65 61/100/66
f 60/98/64 44/86/67 69/101/67 94/99/65
f 94/99/68 69/101/69 41/15/69 65/102/70
f 61/100/71 94/99/68 65/102/70 37/17/72
f 39/103/73 59/104/74 95/105/75 62/106/76
f 59/104/74 43/80/37 70/82/40 95/105/75
f 95/105/77 70/82/45 44/86/46 60/98/78
f 62/106/76 95/105/77 60/98/78 40/97/79
f 38/107/80 58/108/81 96/109/82 63/110/83
f 58/108/81 42/75/29 71/77/32 96/109/82
f 96/109/84 71/77/32 43/80/36 59/104/85
f 63/110/86 96/109/84 59/104/85 39/103/87
f 37/111/88 65/112/89 97/113/90 64/114/91
f 65/112/89 41/67/19 72/70/22 97/113/90
f 97/113/92 72/70/27 42/75/28 58/108/93
f 64/114/91 97/113/92 58/108/93 38/107/94
f 48/115/95 75/116/95 98/117/95 76/118/95
f 75/116/96 47/119/97 74/120/98 98/117/96
f 98/117/99 74/120/100 46/121/101 73/122/99
f 76/118/102 98/117/102 73/122/102 45/15/102
f 44/86/46 68/85/44 99/123/103 80/124/104
f 68/85/44 35/84/43 79/125/105 99/123/103
f 99/123/103 79/125/105 47/119/106 75/116/107
f 80/124/104 99/123/103 75/116/107 48/115/108
f 41/15/109 69/101/109 100/126/110 77/127/111
f 69/101/112 44/86/112 80/124/113 100/126/114
f 100/126/114 80/124/113 48/115/115 76/118/115
f 77/127/111 100/126/110 76/118/116 45/15/116
f 35/84/62 57/96/61 101/128/117 79/125/118
f 57/96/60 33/95/59 78/129/119 101/128/120
f 101/128/120 78/129/119 46/130/101 74/131/100
f 79/125/118 101/128/117 74/131/98 47/119/97
f 38/107/80 63/110/83 102/132/121 86/133/122
f 63/110/86 39/103/87 85/134/123 102/132/124
f 102/132/124 85/134/123 51/135/125 83/136/125
f 86/133/122 102/132/121 83/136/126 52/137/126
f 49/138/127 81/139/127 103/139/127 82/140/127
f 81/139/128 50/111/128 84/141/128 103/139/128
f 103/139/129 84/141/129 52/137/129 83/136/129
f 82/140/130 103/139/130 83/136/130 51/135/130
f 40/97/63 61/100/66 104/142/131 88/143/132
f 61/100/71 37/17/72 87/144/133 104/142/134
f 104/142/134 87/144/133 50/144/135 81/145/135
f 88/143/132 104/142/131 81/145/136 49/138/136
f 37/111/88 64/114/91 105/146/137 87/147/138
f 64/114/91 38/107/94 86/133/139 105/146/137
f 105/146/137 86/133/139 52/137/140 84/141/141
f 87/147/138 105/146/137 84/141/141 50/111/142
f 39/103/73 62/106/76 106/148/143 85/134/144
f 62/106/76 40/97/79 88/143/145 106/148/143
f 106/148/143 88/143/145 49/138/146 82/140/147
f 85/134/144 106/148/143 82/140/147 51/135/148
f 107/149/149 108/71/149 110/73/149 109/150/149
f 109/150/150 110/73/150 114/14/150 113/22/150
f 113/22/151 114/14/151 112/119/151 111/151/151
f 111/151/152 112/119/152 108/13/152 107/21/152
f 109/30/153 113/22/153 111/151/153 107/152/153
f 114/14/154 110/6/154 108/95/154 112/119/154
f 115/149/155 117/150/155 118/73/155 116/71/155
f 117/150/156 121/22/156 122/14/156 118/73/156
f 121/22/157 119/151/157 120/119/157 122/14/157
f 119/151/158 115/21/158 116/13/158 120/119/158
f 117/30/159 115/152/159 119/151/159 121/22/159
f 122/14/160 120/119/160 116/95/160 118/6/160
