# Blender 4.4.3
# www.blender.org
o King
v 0.000000 -0.004264 -0.334361
v 0.000000 0.165420 -0.288261
v 0.127955 -0.004264 -0.308910
v 0.110313 0.165420 -0.266319
v 0.236429 -0.004264 -0.236429
v 0.203831 0.165420 -0.203831
v 0.308910 -0.004264 -0.127955
v 0.266319 0.165420 -0.110313
v 0.334361 -0.004264 0.000000
v 0.288261 0.165420 0.000000
v 0.308910 -0.004264 0.127955
v 0.266319 0.165420 0.110313
v 0.236429 -0.004264 0.236429
v 0.203831 0.165420 0.203831
v 0.127955 -0.004264 0.308910
v 0.110313 0.165420 0.266319
v 0.000000 -0.004264 0.334361
v 0.000000 0.165420 0.288261
v -0.127955 -0.004264 0.308910
v -0.110313 0.165420 0.266319
v -0.236429 -0.004264 0.236429
v -0.203831 0.165420 0.203831
v -0.308910 -0.004264 0.127955
v -0.266319 0.165420 0.110313
v -0.334361 -0.004264 0.000000
v -0.288261 0.165420 0.000000
v -0.308910 -0.004264 -0.127955
v -0.266319 0.165420 -0.110313
v -0.236429 -0.004264 -0.236429
v -0.203831 0.165420 -0.203831
v -0.127955 -0.004264 -0.308910
v -0.110313 0.165420 -0.266319
v 0.049334 0.469535 -0.119102
v -0.000000 0.469535 -0.128915
v 0.091157 0.469535 -0.091157
v 0.119102 0.469535 -0.049334
v 0.128915 0.469535 -0.000000
v 0.119102 0.469535 0.049334
v 0.091157 0.469535 0.091157
v 0.049334 0.469535 0.119102
v -0.000000 0.469535 0.128915
v -0.049334 0.469535 0.119102
v -0.091157 0.469535 0.091157
v -0.119102 0.469535 0.049334
v -0.128915 0.469535 -0.000000
v -0.119102 0.469535 -0.049334
v -0.091157 0.469535 -0.091157
v -0.049334 0.469535 -0.119102
v 0.049334 0.598338 -0.119102
v -0.000000 0.598338 -0.128915
v 0.091157 0.598338 -0.091157
v 0.119102 0.598338 -0.049334
v 0.128915 0.598338 -0.000000
v 0.119102 0.598338 0.049334
v 0.091157 0.598338 0.091157
v 0.049334 0.598338 0.119102
v -0.000000 0.598338 0.128915
v -0.049334 0.598338 0.119102
v -0.091157 0.598338 0.091157
v -0.119102 0.598338 0.049334
v -0.128915 0.598338 -0.000000
v -0.119102 0.598338 -0.049334
v -0.091157 0.598338 -0.091157
v -0.049334 0.598338 -0.119102
v 0.066595 0.302329 -0.160774
v -0.000000 0.302329 -0.174021
v 0.123051 0.302329 -0.123051
v 0.160774 0.302329 -0.066595
v 0.174021 0.302329 -0.000000
v 0.160774 0.302329 0.066595
v 0.123051 0.302329 0.123051
v 0.066595 0.302329 0.160774
v -0.000000 0.302329 0.174021
v -0.066595 0.302329 0.160774
v -0.123051 0.302329 0.123051
v -0.160774 0.302329 0.066595
v -0.174021 0.302329 -0.000000
v -0.160774 0.302329 -0.066595
v -0.123051 0.302329 -0.123051
v -0.066595 0.302329 -0.160774
v 0.066595 0.765544 -0.160774
v -0.000000 0.765544 -0.174021
v 0.123051 0.765544 -0.123051
v 0.160774 0.765544 -0.066595
v 0.174021 0.765544 -0.000000
v 0.160774 0.765544 0.066595
v 0.123051 0.765544 0.123051
v 0.066595 0.765544 0.160774
v -0.000000 0.765544 0.174021
v -0.066595 0.765544 0.160774
v -0.123051 0.765544 0.123051
v -0.160774 0.765544 0.066595
v -0.174021 0.765544 -0.000000
v -0.160774 0.765544 -0.066595
v -0.123051 0.765544 -0.123051
v -0.066595 0.765544 -0.160774
v 0.066595 0.845377 -0.160774
v -0.000000 0.845377 -0.174021
v 0.123051 0.845377 -0.123051
v 0.160774 0.845377 -0.066595
v 0.174021 0.845377 -0.000000
v 0.160774 0.845377 0.066595
v 0.123051 0.845377 0.123051
v 0.066595 0.845377 0.160774
v -0.000000 0.845377 0.174021
v -0.066595 0.845377 0.160774
v -0.123051 0.845377 0.123051
v -0.160774 0.845377 0.066595
v -0.174021 0.845377 -0.000000
v -0.160774 0.845377 -0.066595
v -0.123051 0.845377 -0.123051
v -0.066595 0.845377 -0.160774
v 0.085156 0.845377 -0.205586
v 0.000000 0.845377 -0.222524
v 0.157348 0.845377 -0.157348
v 0.205586 0.845377 -0.085156
v 0.222524 0.845377 0.000000
v 0.205586 0.845377 0.085156
v 0.157348 0.845377 0.157348
v 0.085156 0.845377 0.205586
v 0.000000 0.845377 0.222524
v -0.085156 0.845377 0.205586
v -0.157348 0.845377 0.157348
v -0.205586 0.845377 0.085156
v -0.222524 0.845377 0.000000
v -0.205586 0.845377 -0.085156
v -0.157348 0.845377 -0.157348
v -0.085156 0.845377 -0.205586
v 0.072769 0.947709 -0.175680
v -0.000000 0.947709 -0.190155
v 0.134460 0.947709 -0.134460
v 0.175680 0.947709 -0.072769
v 0.190155 0.947709 -0.000000
v 0.175680 0.947709 0.072769
v 0.134460 0.947709 0.134460
v 0.072769 0.947709 0.175680
v -0.000000 0.947709 0.190155
v -0.072769 0.947709 0.175680
v -0.134460 0.947709 0.134460
v -0.175680 0.947709 0.072769
v -0.190155 0.947709 -0.000000
v -0.175680 0.947709 -0.072769
v -0.134460 0.947709 -0.134460
v -0.072769 0.947709 -0.175680
v 0.096792 0.947709 -0.233677
v -0.000000 0.947709 -0.252930
v 0.178848 0.947709 -0.178848
v 0.233677 0.947709 -0.096792
v 0.252930 0.947709 0.000000
v 0.233677 0.947709 0.096792
v 0.178848 0.947709 0.178848
v 0.096792 0.947709 0.233677
v -0.000000 0.947709 0.252930
v -0.096792 0.947709 0.233677
v -0.178848 0.947709 0.178848
v -0.233677 0.947709 0.096792
v -0.252930 0.947709 0.000000
v -0.233677 0.947709 -0.096792
v -0.178848 0.947709 -0.178848
v -0.096792 0.947709 -0.233677
v 0.065895 1.175406 -0.159085
v 0.000000 1.162064 -0.139714
v 0.098793 1.162064 -0.098792
v 0.159085 1.175406 -0.065895
v 0.139714 1.162064 -0.000000
v 0.159085 1.175406 0.065895
v 0.098793 1.162064 0.098793
v 0.065895 1.175406 0.159085
v 0.000000 1.162064 0.139714
v -0.065895 1.175406 0.159085
v -0.098792 1.162064 0.098792
v -0.159085 1.175406 0.065895
v -0.139714 1.162064 0.000000
v -0.159085 1.175406 -0.065895
v -0.098792 1.162064 -0.098792
v -0.065895 1.175406 -0.159085
v 0.099471 1.265771 -0.240144
v 0.000000 1.162064 -0.190155
v 0.134460 1.162064 -0.134460
v 0.240144 1.265771 -0.099471
v 0.190155 1.162064 -0.000000
v 0.240144 1.265771 0.099471
v 0.134460 1.162064 0.134460
v 0.099471 1.265771 0.240144
v 0.000000 1.162064 0.190155
v -0.099471 1.265771 0.240144
v -0.134460 1.162064 0.134460
v -0.240144 1.265771 0.099471
v -0.190155 1.162064 -0.000000
v -0.240144 1.265771 -0.099471
v -0.134460 1.162064 -0.134460
v -0.099471 1.265771 -0.240144
vn -0.0000 0.2622 -0.9650
vn -0.0000 0.4743 -0.8804
vn 0.3369 0.4743 -0.8134
vn 0.3693 0.2622 -0.8916
vn 0.6225 0.4743 -0.6225
vn 0.6824 0.2622 -0.6824
vn 0.8134 0.4743 -0.3369
vn 0.8916 0.2622 -0.3693
vn 0.8804 0.4743 -0.0000
vn 0.9650 0.2622 -0.0000
vn 0.8134 0.4743 0.3369
vn 0.8916 0.2622 0.3693
vn 0.6225 0.4743 0.6225
vn 0.6824 0.2622 0.6824
vn 0.3369 0.4743 0.8134
vn 0.3693 0.2622 0.8916
vn -0.0000 0.4743 0.8804
vn -0.0000 0.2622 0.9650
vn -0.3369 0.4743 0.8134
vn -0.3693 0.2622 0.8916
vn -0.6225 0.4743 0.6225
vn -0.6824 0.2622 0.6824
vn -0.8134 0.4743 0.3369
vn -0.8916 0.2622 0.3693
vn -0.8804 0.4743 -0.0000
vn -0.9650 0.2622 -0.0000
vn -0.8134 0.4743 -0.3369
vn -0.8916 0.2622 -0.3693
vn -0.6225 0.4743 -0.6225
vn -0.6824 0.2622 -0.6824
vn 0.8085 0.4839 -0.3349
vn 0.8751 0.4839 -0.0000
vn -0.3369 0.4743 -0.8134
vn -0.3693 0.2622 -0.8916
vn -0.0000 -1.0000 -0.0000
vn -0.0000 0.1342 0.9910
vn 0.3792 0.1342 0.9155
vn 0.3792 -0.1342 0.9155
vn -0.0000 -0.1342 0.9910
vn -0.0000 0.4839 0.8751
vn -0.3349 0.4839 0.8085
vn -0.8085 0.4839 -0.3349
vn -0.6188 0.4839 -0.6188
vn 0.3349 0.4839 -0.8085
vn 0.6188 0.4839 -0.6188
vn 0.6188 0.4839 0.6188
vn 0.3349 0.4839 0.8085
vn -0.8085 0.4839 0.3349
vn -0.8751 0.4839 -0.0000
vn 0.8085 0.4839 0.3349
vn -0.6188 0.4839 0.6188
vn -0.3349 0.4839 -0.8085
vn -0.0000 0.4839 -0.8751
vn 0.3792 0.1342 -0.9155
vn -0.0000 0.1342 -0.9910
vn -0.0000 -0.1342 -0.9910
vn 0.3792 -0.1342 -0.9155
vn -0.3792 0.1342 -0.9155
vn -0.3792 -0.1342 -0.9155
vn -0.3792 0.1342 0.9155
vn -0.3792 -0.1342 0.9155
vn 0.7007 0.1342 -0.7007
vn 0.7007 -0.1342 -0.7007
vn -0.7007 0.1342 0.7007
vn -0.7007 -0.1342 0.7007
vn 0.9155 0.1342 -0.3792
vn 0.9155 -0.1342 -0.3792
vn -0.9155 0.1342 0.3792
vn -0.9155 -0.1342 0.3792
vn 0.9910 0.1342 -0.0000
vn 0.9910 -0.1342 -0.0000
vn -0.9910 0.1342 -0.0000
vn -0.9910 -0.1342 -0.0000
vn 0.9155 0.1342 0.3792
vn 0.9155 -0.1342 0.3792
vn -0.9155 0.1342 -0.3792
vn -0.9155 -0.1342 -0.3792
vn 0.7007 0.1342 0.7007
vn 0.7007 -0.1342 0.7007
vn -0.7007 0.1342 -0.7007
vn -0.7007 -0.1342 -0.7007
vn -0.7009 -0.1324 -0.7009
vn -0.9157 -0.1324 -0.3793
vn -0.9239 -0.0000 -0.3827
vn -0.7071 -0.0000 -0.7071
vn -0.0000 -0.1324 -0.9912
vn 0.3793 -0.1324 -0.9157
vn 0.7009 -0.1324 -0.7009
vn 0.9157 -0.1324 -0.3793
vn 0.9912 -0.1324 -0.0000
vn 0.9157 -0.1324 0.3793
vn 0.7009 -0.1324 0.7009
vn 0.3793 -0.1324 0.9157
vn -0.0000 -0.1324 0.9912
vn -0.3793 -0.1324 0.9157
vn -0.7009 -0.1324 0.7009
vn -0.9157 -0.1324 0.3793
vn -0.9912 -0.1324 -0.0000
vn -0.3793 -0.1324 -0.9157
vn 0.7071 -0.0000 0.7071
vn 0.3827 -0.0000 0.9239
vn -0.3827 -0.0000 -0.9239
vn -0.0000 -0.0000 1.0000
vn -0.0000 -0.0000 -1.0000
vn 0.3827 -0.0000 -0.9239
vn -0.3827 -0.0000 0.9239
vn 0.7071 -0.0000 -0.7071
vn -0.7071 -0.0000 0.7071
vn 0.9239 -0.0000 -0.3827
vn -0.9239 -0.0000 0.3827
vn 1.0000 -0.0000 -0.0000
vn -1.0000 -0.0000 -0.0000
vn 0.9239 -0.0000 0.3827
vn 0.3668 -0.2848 0.8856
vn 0.6778 -0.2848 0.6778
vn -0.7025 -0.1134 0.7025
vn -0.7918 -0.1124 0.6004
vn -0.3668 -0.2848 -0.8856
vn -0.6778 -0.2848 -0.6778
vn -0.0000 -0.2848 0.9586
vn 0.3668 -0.2848 -0.8856
vn -0.0000 -0.2848 -0.9586
vn -0.3668 -0.2848 0.8856
vn 0.6778 -0.2848 -0.6778
vn -0.6778 -0.2848 0.6778
vn 0.8856 -0.2848 -0.3668
vn -0.8856 -0.2848 0.3668
vn 0.9586 -0.2848 -0.0000
vn -0.9586 -0.2848 -0.0000
vn 0.8856 -0.2848 0.3668
vn -0.8856 -0.2848 -0.3668
vn -0.0000 1.0000 -0.0000
vn 0.6004 -0.1124 -0.7918
vn 0.7025 -0.1134 -0.7025
vn -0.6004 -0.1124 0.7918
vn 0.9935 -0.1134 -0.0000
vn 0.9844 -0.1124 0.1353
vn -0.9935 -0.1134 -0.0000
vn -0.9844 -0.1124 -0.1353
vn 0.9844 -0.1124 -0.1353
vn -0.9844 -0.1124 0.1353
vn 0.7025 -0.1134 0.7025
vn 0.6004 -0.1124 0.7918
vn -0.7025 -0.1134 -0.7025
vn -0.6004 -0.1124 -0.7918
vn 0.7918 -0.1124 0.6004
vn -0.7918 -0.1124 -0.6004
vn -0.0000 -0.1134 0.9935
vn -0.1353 -0.1124 0.9844
vn -0.1353 -0.1124 -0.9844
vn -0.0000 -0.1134 -0.9935
vn 0.1353 -0.1124 -0.9844
vn 0.1353 -0.1124 0.9844
vn 0.7918 -0.1124 -0.6004
vn -0.3784 0.8052 0.4567
vn -0.2203 0.8177 0.5318
vn -0.0554 0.8052 0.5905
vn -0.5905 0.8052 0.0554
vn -0.5318 0.8177 0.2203
vn -0.4567 0.8052 0.3784
vn -0.4567 0.8052 -0.3784
vn -0.5318 0.8177 -0.2203
vn -0.5905 0.8052 -0.0554
vn -0.0554 0.8052 -0.5905
vn -0.2203 0.8177 -0.5318
vn -0.3784 0.8052 -0.4567
vn 0.3784 0.8052 -0.4567
vn 0.2203 0.8177 -0.5318
vn 0.0554 0.8052 -0.5905
vn 0.5905 0.8052 -0.0554
vn 0.5318 0.8177 -0.2203
vn 0.4567 0.8052 -0.3784
vn 0.4567 0.8052 0.3784
vn 0.5318 0.8177 0.2203
vn 0.5905 0.8052 0.0554
vn 0.0554 0.8052 0.5905
vn 0.2203 0.8177 0.5318
vn 0.3784 0.8052 0.4567
vt 1.000000 0.500000
vt 1.000000 1.000000
vt 0.937500 1.000000
vt 0.937500 0.500000
vt 0.875000 1.000000
vt 0.875000 0.500000
vt 0.812500 1.000000
vt 0.812500 0.500000
vt 0.750000 1.000000
vt 0.750000 0.500000
vt 0.687500 1.000000
vt 0.687500 0.500000
vt 0.625000 1.000000
vt 0.625000 0.500000
vt 0.562500 1.000000
vt 0.562500 0.500000
vt 0.500000 1.000000
vt 0.500000 0.500000
vt 0.437500 1.000000
vt 0.437500 0.500000
vt 0.375000 1.000000
vt 0.375000 0.500000
vt 0.312500 1.000000
vt 0.312500 0.500000
vt 0.250000 1.000000
vt 0.250000 0.500000
vt 0.187500 1.000000
vt 0.187500 0.500000
vt 0.125000 1.000000
vt 0.125000 0.500000
vt 0.062500 1.000000
vt 0.062500 0.500000
vt 0.000000 1.000000
vt 0.000000 0.500000
vt 0.750000 0.490000
vt 0.841844 0.471731
vt 0.919706 0.419706
vt 0.971731 0.341844
vt 0.990000 0.250000
vt 0.971731 0.158156
vt 0.919706 0.080294
vt 0.841844 0.028269
vt 0.750000 0.010000
vt 0.658156 0.028269
vt 0.580294 0.080294
vt 0.528269 0.158156
vt 0.510000 0.250000
vt 0.528269 0.341844
vt 0.580294 0.419706
vt 0.658156 0.471731
vt 0.390540 1.000000
vt 0.442597 1.000000
vt 0.293589 1.000000
vt 0.643911 1.000000
vt 0.750268 1.000000
vt 0.733328 1.000000
vt 0.694144 1.000000
vt 0.647788 1.000000
vt 0.598201 1.000000
vt 0.546960 1.000000
vt 0.494903 1.000000
vt 0.339299 1.000000
vt 0.289712 1.000000
vt 0.243356 1.000000
vt 0.204172 1.000000
vt 0.187232 1.000000
vt 0.568643 1.000000
vt 0.399493 1.000000
vt 0.256333 1.000000
vt 0.301166 1.000000
vt 0.274893 1.000000
vt 0.339826 1.000000
vt 0.354749 1.000000
vt 0.410188 1.000000
vt 0.445508 1.000000
vt 0.488249 1.000000
vt 0.537826 1.000000
vt 0.563926 1.000000
vt 0.624877 1.000000
vt 0.623531 1.000000
vt 0.688962 1.000000
vt 0.614752 1.000000
s 1
f 1/1/1 2/2/2 4/3/3 3/4/4
f 3/4/4 4/3/3 6/5/5 5/6/6
f 5/6/6 6/5/5 8/7/7 7/8/8
f 7/8/8 8/7/7 10/9/9 9/10/10
f 9/10/10 10/9/9 12/11/11 11/12/12
f 11/12/12 12/11/11 14/13/13 13/14/14
f 13/14/14 14/13/13 16/15/15 15/16/16
f 15/16/16 16/15/15 18/17/17 17/18/18
f 17/18/18 18/17/17 20/19/19 19/20/20
f 19/20/20 20/19/19 22/21/21 21/22/22
f 21/22/22 22/21/21 24/23/23 23/24/24
f 23/24/24 24/23/23 26/25/25 25/26/26
f 25/26/26 26/25/25 28/27/27 27/28/28
f 27/28/28 28/27/27 30/29/29 29/30/30
f 10/9/9 8/7/7 68/7/31 69/9/32
f 29/30/30 30/29/29 32/31/33 31/32/34
f 31/32/34 32/31/33 2/33/2 1/34/1
f 1/35/35 3/36/35 5/37/35 7/38/35 9/39/35 11/40/35 13/41/35 15/42/35 17/43/35 19/44/35 21/45/35 23/46/35 25/47/35 27/48/35 29/49/35 31/50/35
f 41/17/36 40/15/37 56/15/38 57/17/39
f 20/19/19 18/17/17 73/17/40 74/19/41
f 30/29/29 28/27/27 78/27/42 79/29/43
f 6/5/5 4/3/3 65/3/44 67/5/45
f 16/15/15 14/13/13 71/13/46 72/15/47
f 26/25/25 24/23/23 76/23/48 77/25/49
f 12/11/11 10/9/9 69/9/32 70/11/50
f 22/21/21 20/19/19 74/19/41 75/21/51
f 32/31/33 30/29/29 79/29/43 80/31/52
f 8/7/7 6/5/5 67/5/45 68/7/31
f 18/17/17 16/15/15 72/15/47 73/17/40
f 4/3/3 2/2/2 66/2/53 65/3/44
f 28/27/27 26/25/25 77/25/49 78/27/42
f 14/13/13 12/11/11 70/11/50 71/13/46
f 24/23/23 22/21/21 75/21/51 76/23/48
f 2/33/2 32/31/33 80/31/52 66/33/53
f 33/3/54 34/2/55 50/2/56 49/3/57
f 34/33/55 48/31/58 64/31/59 50/33/56
f 42/19/60 41/17/36 57/17/39 58/19/61
f 35/5/62 33/3/54 49/3/57 51/5/63
f 43/21/64 42/19/60 58/19/61 59/21/65
f 36/7/66 35/5/62 51/5/63 52/7/67
f 44/23/68 43/21/64 59/21/65 60/23/69
f 37/9/70 36/7/66 52/7/67 53/9/71
f 45/25/72 44/23/68 60/23/69 61/25/73
f 38/11/74 37/9/70 53/9/71 54/11/75
f 46/27/76 45/25/72 61/25/73 62/27/77
f 39/13/78 38/11/74 54/11/75 55/13/79
f 47/29/80 46/27/76 62/27/77 63/29/81
f 40/15/37 39/13/78 55/13/79 56/15/38
f 48/31/58 47/29/80 63/29/81 64/31/59
f 95/29/82 94/27/83 110/27/84 111/29/85
f 34/2/55 33/3/54 65/3/44 66/2/53
f 33/3/54 35/5/62 67/5/45 65/3/44
f 35/5/62 36/7/66 68/7/31 67/5/45
f 36/7/66 37/9/70 69/9/32 68/7/31
f 37/9/70 38/11/74 70/11/50 69/9/32
f 38/11/74 39/13/78 71/13/46 70/11/50
f 39/13/78 40/15/37 72/15/47 71/13/46
f 40/15/37 41/17/36 73/17/40 72/15/47
f 41/17/36 42/19/60 74/19/41 73/17/40
f 42/19/60 43/21/64 75/21/51 74/19/41
f 43/21/64 44/23/68 76/23/48 75/21/51
f 44/23/68 45/25/72 77/25/49 76/23/48
f 45/25/72 46/27/76 78/27/42 77/25/49
f 46/27/76 47/29/80 79/29/43 78/27/42
f 47/29/80 48/31/58 80/31/52 79/29/43
f 48/31/58 34/33/55 66/33/53 80/31/52
f 49/3/57 50/2/56 82/2/86 81/3/87
f 51/5/63 49/3/57 81/3/87 83/5/88
f 52/7/67 51/5/63 83/5/88 84/7/89
f 53/9/71 52/7/67 84/7/89 85/9/90
f 54/11/75 53/9/71 85/9/90 86/11/91
f 55/13/79 54/11/75 86/11/91 87/13/92
f 56/15/38 55/13/79 87/13/92 88/15/93
f 57/17/39 56/15/38 88/15/93 89/17/94
f 58/19/61 57/17/39 89/17/94 90/19/95
f 59/21/65 58/19/61 90/19/95 91/21/96
f 60/23/69 59/21/65 91/21/96 92/23/97
f 61/25/73 60/23/69 92/23/97 93/25/98
f 62/27/77 61/25/73 93/25/98 94/27/83
f 63/29/81 62/27/77 94/27/83 95/29/82
f 64/31/59 63/29/81 95/29/82 96/31/99
f 50/33/56 64/31/59 96/31/99 82/33/86
f 88/15/93 87/13/92 103/13/100 104/15/101
f 96/31/99 95/29/82 111/29/85 112/31/102
f 89/17/94 88/15/93 104/15/101 105/17/103
f 81/3/87 82/2/86 98/2/104 97/3/105
f 82/33/86 96/31/99 112/31/102 98/33/104
f 90/19/95 89/17/94 105/17/103 106/19/106
f 83/5/88 81/3/87 97/3/105 99/5/107
f 91/21/96 90/19/95 106/19/106 107/21/108
f 84/7/89 83/5/88 99/5/107 100/7/109
f 92/23/97 91/21/96 107/21/108 108/23/110
f 85/9/90 84/7/89 100/7/109 101/9/111
f 93/25/98 92/23/97 108/23/110 109/25/112
f 86/11/91 85/9/90 101/9/111 102/11/113
f 94/27/83 93/25/98 109/25/112 110/27/84
f 87/13/92 86/11/91 102/11/113 103/13/100
f 111/29/35 110/27/35 126/27/35 127/29/35
f 103/13/35 102/11/35 118/11/35 119/13/35
f 110/27/35 109/25/35 125/25/35 126/27/35
f 102/11/35 101/9/35 117/9/35 118/11/35
f 109/25/35 108/23/35 124/23/35 125/25/35
f 101/9/35 100/7/35 116/7/35 117/9/35
f 108/23/35 107/21/35 123/21/35 124/23/35
f 100/7/35 99/5/35 115/5/35 116/7/35
f 107/21/35 106/19/35 122/19/35 123/21/35
f 99/5/35 97/3/35 113/3/35 115/5/35
f 106/19/35 105/17/35 121/17/35 122/19/35
f 98/33/35 112/31/35 128/31/35 114/33/35
f 97/3/35 98/2/35 114/2/35 113/3/35
f 105/17/35 104/15/35 120/15/35 121/17/35
f 112/31/35 111/29/35 127/29/35 128/31/35
f 104/15/35 103/13/35 119/13/35 120/15/35
f 120/15/114 119/13/115 151/13/115 152/15/114
f 139/51/116 138/52/117 186/52/117 187/51/116
f 128/31/118 127/29/119 159/29/119 160/31/118
f 121/17/120 120/15/114 152/15/114 153/17/120
f 113/3/121 114/2/122 146/2/122 145/3/121
f 114/33/122 128/31/118 160/31/118 146/33/122
f 122/19/123 121/17/120 153/17/120 154/19/123
f 115/5/124 113/3/121 145/3/121 147/5/124
f 123/21/125 122/19/123 154/19/123 155/21/125
f 116/7/126 115/5/124 147/5/124 148/7/126
f 124/23/127 123/21/125 155/21/125 156/23/127
f 117/9/128 116/7/126 148/7/126 149/9/128
f 125/25/129 124/23/127 156/23/127 157/25/129
f 118/11/130 117/9/128 149/9/128 150/11/130
f 126/27/131 125/25/129 157/25/129 158/27/131
f 119/13/115 118/11/130 150/11/130 151/13/115
f 127/29/119 126/27/131 158/27/131 159/29/119
f 130/53/132 129/54/132 145/3/132 146/33/132
f 129/54/132 131/55/132 147/5/132 145/3/132
f 131/55/132 132/56/132 148/7/132 147/5/132
f 132/56/132 133/57/132 149/9/132 148/7/132
f 133/57/132 134/58/132 150/11/132 149/9/132
f 134/58/132 135/59/132 151/13/132 150/11/132
f 135/59/132 136/60/132 152/15/132 151/13/132
f 136/60/132 137/61/132 153/17/132 152/15/132
f 137/61/132 138/52/132 154/19/132 153/17/132
f 138/52/132 139/51/132 155/21/132 154/19/132
f 139/51/132 140/62/132 156/23/132 155/21/132
f 140/62/132 141/63/132 157/25/132 156/23/132
f 141/63/132 142/64/132 158/27/132 157/25/132
f 142/64/132 143/65/132 159/29/132 158/27/132
f 143/65/132 144/66/132 160/31/132 159/29/132
f 144/66/132 130/53/132 146/33/132 160/31/132
f 161/67/132 162/68/132 176/69/132 175/70/132 174/71/132 173/72/132 172/73/132 171/74/132 170/75/132 169/76/132 168/77/132 167/78/132 166/79/132 165/80/132 164/81/132 163/82/132
f 132/56/133 131/55/134 179/55/134 180/56/133
f 140/62/135 139/51/116 187/51/116 188/62/135
f 133/57/136 132/56/137 180/56/137 181/57/136
f 141/63/138 140/62/139 188/62/139 189/63/138
f 134/58/140 133/57/136 181/57/136 182/58/140
f 142/64/141 141/63/138 189/63/138 190/64/141
f 135/59/142 134/58/143 182/58/143 183/59/142
f 143/65/144 142/64/145 190/64/145 191/65/144
f 136/60/146 135/59/142 183/59/142 184/60/146
f 144/66/147 143/65/144 191/65/144 192/66/147
f 137/61/148 136/60/149 184/60/149 185/61/148
f 129/54/150 130/53/151 178/53/151 177/54/150
f 130/53/151 144/66/152 192/66/152 178/53/151
f 138/52/153 137/61/148 185/61/148 186/52/153
f 131/55/134 129/54/154 177/54/154 179/55/134
f 162/68/155 161/67/156 177/54/156 178/53/155
f 161/67/156 163/82/157 179/55/157 177/54/156
f 163/82/158 164/81/159 180/56/159 179/55/158
f 164/81/159 165/80/160 181/57/160 180/56/159
f 165/80/161 166/79/162 182/58/162 181/57/161
f 166/79/162 167/78/163 183/59/163 182/58/162
f 167/78/164 168/77/165 184/60/165 183/59/164
f 168/77/165 169/76/166 185/61/166 184/60/165
f 169/76/167 170/75/168 186/52/168 185/61/167
f 170/75/168 171/74/169 187/51/169 186/52/168
f 171/74/170 172/73/171 188/62/171 187/51/170
f 172/73/171 173/72/172 189/63/172 188/62/171
f 173/72/173 174/71/174 190/64/174 189/63/173
f 174/71/174 175/70/175 191/65/175 190/64/174
f 175/70/176 176/69/177 192/66/177 191/65/176
f 176/69/177 162/68/178 178/53/178 192/66/177
