# Blender 4.4.3
# www.blender.org
o Cylinder
v 0.000000 0.005870 -0.305320
v 0.000000 0.183260 -0.274441
v 0.116841 0.005870 -0.282078
v 0.105024 0.183260 -0.253551
v 0.215894 0.005870 -0.215894
v 0.194059 0.183260 -0.194059
v 0.282078 0.005870 -0.116841
v 0.253551 0.183260 -0.105024
v 0.305320 0.005870 0.000000
v 0.274441 0.183260 -0.000000
v 0.282078 0.005870 0.116841
v 0.253551 0.183260 0.105024
v 0.215894 0.005870 0.215894
v 0.194059 0.183260 0.194059
v 0.116841 0.005870 0.282078
v 0.105024 0.183260 0.253551
v 0.000000 0.005870 0.305320
v 0.000000 0.183260 0.274441
v -0.116841 0.005870 0.282078
v -0.105024 0.183260 0.253551
v -0.215894 0.005870 0.215894
v -0.194059 0.183260 0.194059
v -0.282078 0.005870 0.116841
v -0.253551 0.183260 0.105024
v -0.305320 0.005870 0.000000
v -0.274441 0.183260 -0.000000
v -0.282078 0.005870 -0.116841
v -0.253551 0.183260 -0.105024
v -0.215894 0.005870 -0.215894
v -0.194059 0.183260 -0.194059
v -0.116841 0.005870 -0.282078
v -0.105024 0.183260 -0.253551
v 0.076705 0.266580 -0.185183
v -0.000000 0.266580 -0.200440
v 0.141733 0.266580 -0.141733
v 0.185183 0.266580 -0.076705
v 0.200440 0.266580 0.000000
v 0.185183 0.266580 0.076705
v 0.141733 0.266580 0.141733
v 0.076705 0.266580 0.185183
v -0.000000 0.266580 0.200440
v -0.076705 0.266580 0.185183
v -0.141733 0.266580 0.141733
v -0.185183 0.266580 0.076705
v -0.200440 0.266580 0.000000
v -0.185183 0.266580 -0.076705
v -0.141733 0.266580 -0.141733
v -0.076705 0.266580 -0.185183
v 0.049130 0.410617 -0.118610
v -0.000000 0.410617 -0.128383
v 0.090780 0.410617 -0.090780
v 0.118610 0.410617 -0.049130
v 0.128383 0.410617 0.000000
v 0.118610 0.410617 0.049130
v 0.090780 0.410617 0.090780
v 0.049130 0.410617 0.118610
v -0.000000 0.410617 0.128383
v -0.049130 0.410617 0.118610
v -0.090780 0.410617 0.090780
v -0.118610 0.410617 0.049130
v -0.128383 0.410617 0.000000
v -0.118610 0.410617 -0.049130
v -0.090780 0.410617 -0.090780
v -0.049130 0.410617 -0.118610
v 0.041436 0.666634 -0.100034
v -0.000000 0.666634 -0.108276
v 0.076563 0.666634 -0.076563
v 0.100034 0.666634 -0.041436
v 0.108276 0.666634 0.000000
v 0.100034 0.666634 0.041436
v 0.076563 0.666634 0.076563
v 0.041436 0.666634 0.100034
v -0.000000 0.666634 0.108276
v -0.041436 0.666634 0.100034
v -0.076563 0.666634 0.076563
v -0.100034 0.666634 0.041436
v -0.108276 0.666634 0.000000
v -0.100034 0.666634 -0.041436
v -0.076563 0.666634 -0.076563
v -0.041436 0.666634 -0.100034
v -0.000000 0.555959 -0.113229
v 0.043331 0.555959 -0.104610
v -0.043331 0.555959 -0.104610
v -0.000000 0.555959 0.113229
v -0.043331 0.555959 0.104610
v 0.080065 0.555959 -0.080065
v -0.080065 0.555959 0.080065
v 0.104610 0.555959 -0.043331
v -0.104610 0.555959 0.043331
v 0.113229 0.555959 0.000000
v -0.113229 0.555959 0.000000
v 0.104610 0.555959 0.043331
v -0.104610 0.555959 -0.043331
v 0.080065 0.555959 0.080065
v -0.080065 0.555959 -0.080065
v 0.043331 0.555959 0.104610
v 0.074416 0.667158 -0.179656
v -0.000000 0.667158 -0.194459
v 0.137503 0.667158 -0.137503
v 0.179656 0.667158 -0.074416
v 0.194459 0.667158 0.000000
v 0.179656 0.667158 0.074416
v 0.137503 0.667158 0.137503
v 0.074416 0.667158 0.179656
v -0.000000 0.667158 0.194459
v -0.074416 0.667158 0.179656
v -0.137503 0.667158 0.137503
v -0.179656 0.667158 0.074416
v -0.194459 0.667158 0.000000
v -0.179656 0.667158 -0.074416
v -0.137503 0.667158 -0.137503
v -0.074416 0.667158 -0.179656
v -0.000000 0.589272 -0.199412
v -0.076312 0.589272 -0.184232
v -0.000000 0.589272 0.199412
v 0.076311 0.589272 -0.184232
v -0.076312 0.589272 0.184232
v 0.141005 0.589272 -0.141005
v -0.141005 0.589272 0.141005
v 0.184232 0.589272 -0.076312
v -0.184232 0.589272 0.076312
v 0.199412 0.589272 0.000000
v -0.199412 0.589272 0.000000
v 0.184232 0.589272 0.076312
v -0.184232 0.589272 -0.076312
v 0.141005 0.589272 0.141005
v -0.141005 0.589272 -0.141005
v 0.076311 0.589272 0.184232
v -0.000000 0.938636 -0.135803
v 0.036748 0.975970 -0.063649
v 0.067901 0.938636 -0.117609
v 0.088718 0.882760 -0.153663
v 0.096027 0.816851 -0.166324
v 0.088718 0.750942 -0.153663
v 0.067901 0.695067 -0.117609
v 0.036748 0.657732 -0.063649
v 0.063649 0.975970 -0.036748
v 0.117609 0.938636 -0.067901
v 0.153663 0.882760 -0.088718
v 0.166324 0.816851 -0.096027
v 0.153663 0.750942 -0.088718
v 0.117609 0.695067 -0.067901
v 0.063649 0.657732 -0.036748
v 0.073496 0.975970 0.000000
v 0.135803 0.938636 0.000000
v 0.177435 0.882760 0.000000
v 0.192054 0.816851 -0.000000
v 0.177435 0.750942 0.000000
v 0.135803 0.695067 0.000000
v 0.073496 0.657732 0.000000
v 0.063649 0.975970 0.036748
v 0.117609 0.938636 0.067901
v 0.153663 0.882760 0.088718
v 0.166324 0.816851 0.096027
v 0.153663 0.750942 0.088718
v 0.117609 0.695067 0.067901
v 0.063649 0.657732 0.036748
v 0.036748 0.975970 0.063649
v 0.067901 0.938636 0.117609
v 0.088718 0.882760 0.153663
v 0.096027 0.816851 0.166324
v 0.088718 0.750942 0.153663
v 0.067901 0.695067 0.117609
v 0.036748 0.657732 0.063649
v -0.000000 0.975970 0.073496
v -0.000000 0.938636 0.135803
v -0.000000 0.882760 0.177435
v -0.000000 0.816851 0.192054
v -0.000000 0.750942 0.177435
v -0.000000 0.695067 0.135803
v -0.000000 0.657732 0.073496
v -0.036748 0.975970 0.063649
v -0.067901 0.938636 0.117609
v -0.088718 0.882760 0.153663
v -0.096027 0.816851 0.166324
v -0.088718 0.750942 0.153663
v -0.067901 0.695067 0.117609
v -0.036748 0.657732 0.063649
v -0.000000 0.989080 -0.000000
v -0.063649 0.975970 0.036748
v -0.117609 0.938636 0.067901
v -0.153663 0.882760 0.088718
v -0.166324 0.816851 0.096027
v -0.153663 0.750942 0.088718
v -0.117609 0.695067 0.067901
v -0.063649 0.657732 0.036748
v -0.000000 0.644622 -0.000000
v -0.073496 0.975970 0.000000
v -0.135803 0.938636 -0.000000
v -0.177435 0.882760 0.000000
v -0.192054 0.816851 -0.000000
v -0.177435 0.750942 0.000000
v -0.135803 0.695067 -0.000000
v -0.073496 0.657732 0.000000
v -0.063649 0.975970 -0.036748
v -0.117609 0.938636 -0.067901
v -0.153663 0.882760 -0.088718
v -0.166324 0.816851 -0.096027
v -0.153663 0.750942 -0.088718
v -0.117609 0.695067 -0.067901
v -0.063649 0.657732 -0.036748
v -0.036748 0.975970 -0.063649
v -0.067901 0.938636 -0.117609
v -0.088718 0.882760 -0.153663
v -0.096027 0.816851 -0.166324
v -0.088718 0.750942 -0.153663
v -0.067901 0.695067 -0.117609
v -0.036748 0.657732 -0.063649
v -0.000000 0.975970 -0.073496
v -0.000000 0.882760 -0.177435
v -0.000000 0.816851 -0.192054
v -0.000000 0.750942 -0.177435
v 0.000000 0.695067 -0.135803
v -0.000000 0.657732 -0.073496
vn -0.0000 0.1715 -0.9852
vn -0.0000 0.4599 -0.8880
vn 0.3398 0.4599 -0.8204
vn 0.3770 0.1715 -0.9102
vn 0.6279 0.4599 -0.6279
vn 0.6966 0.1715 -0.6966
vn 0.8204 0.4599 -0.3398
vn 0.9102 0.1715 -0.3770
vn 0.8880 0.4599 -0.0000
vn 0.9852 0.1715 -0.0000
vn 0.8204 0.4599 0.3398
vn 0.9102 0.1715 0.3770
vn 0.6279 0.4599 0.6279
vn 0.6966 0.1715 0.6966
vn 0.3398 0.4599 0.8204
vn 0.3770 0.1715 0.9102
vn -0.0000 0.4599 0.8880
vn -0.0000 0.1715 0.9852
vn -0.3398 0.4599 0.8204
vn -0.3770 0.1715 0.9102
vn -0.6279 0.4599 0.6279
vn -0.6966 0.1715 0.6966
vn -0.8204 0.4599 0.3398
vn -0.9102 0.1715 0.3770
vn -0.8880 0.4599 -0.0000
vn -0.9852 0.1715 -0.0000
vn -0.8204 0.4599 -0.3398
vn -0.9102 0.1715 -0.3770
vn -0.6279 0.4599 -0.6279
vn -0.6966 0.1715 -0.6966
vn 0.8204 0.5718 -0.0000
vn 0.7580 0.5718 0.3140
vn -0.3398 0.4599 -0.8204
vn -0.3770 0.1715 -0.9102
vn -0.0000 -1.0000 -0.0000
vn -0.7580 0.5718 0.3140
vn -0.5801 0.5718 0.5801
vn -0.6766 0.2904 0.6766
vn -0.8841 0.2904 0.3662
vn -0.3140 0.5718 0.7580
vn -0.5801 0.5718 -0.5801
vn -0.3140 0.5718 -0.7580
vn 0.5801 0.5718 -0.5801
vn 0.7580 0.5718 -0.3140
vn 0.3140 0.5718 0.7580
vn -0.0000 0.5718 0.8204
vn -0.0000 0.5718 -0.8204
vn 0.3140 0.5718 -0.7580
vn -0.8204 0.5718 -0.0000
vn -0.7580 0.5718 -0.3140
vn 0.5801 0.5718 0.5801
vn -0.1380 -0.9327 0.3331
vn -0.0000 -0.9327 0.3605
vn 0.8841 0.2904 -0.3662
vn 0.9569 0.2904 -0.0000
vn -0.9569 0.2904 -0.0000
vn 0.8841 0.2904 0.3662
vn -0.8841 0.2904 -0.3662
vn 0.6766 0.2904 0.6766
vn -0.6766 0.2904 -0.6766
vn 0.3662 0.2904 0.8841
vn -0.3662 0.2904 -0.8841
vn -0.0000 0.2904 0.9569
vn -0.0000 0.2904 -0.9569
vn 0.3662 0.2904 -0.8841
vn -0.3662 0.2904 0.8841
vn 0.6766 0.2904 -0.6766
vn -0.0013 1.0000 0.0032
vn -0.0000 1.0000 0.0034
vn 0.0013 1.0000 0.0032
vn 0.0024 1.0000 0.0024
vn 0.0032 1.0000 0.0013
vn 0.0034 1.0000 -0.0000
vn 0.0032 1.0000 -0.0013
vn 0.0024 1.0000 -0.0024
vn 0.0013 1.0000 -0.0032
vn -0.0000 1.0000 -0.0034
vn -0.0013 1.0000 -0.0032
vn -0.0024 1.0000 -0.0024
vn -0.0032 1.0000 -0.0013
vn -0.0034 1.0000 -0.0000
vn -0.0032 1.0000 0.0013
vn -0.0024 1.0000 0.0024
vn -0.0000 1.0000 -0.0061
vn -0.0023 1.0000 -0.0056
vn 0.2549 -0.9327 -0.2549
vn 0.1380 -0.9327 -0.3331
vn -0.0043 1.0000 -0.0043
vn -0.2549 -0.9327 0.2549
vn -0.0056 1.0000 -0.0023
vn 0.3331 -0.9327 -0.1380
vn -0.0061 1.0000 -0.0000
vn -0.3331 -0.9327 0.1380
vn -0.0056 1.0000 0.0023
vn 0.3605 -0.9327 -0.0000
vn -0.0043 1.0000 0.0043
vn -0.0000 1.0000 0.0061
vn 0.0023 1.0000 0.0056
vn -0.3605 -0.9327 -0.0000
vn -0.0023 1.0000 0.0056
vn 0.0043 1.0000 0.0043
vn 0.3806 0.1037 0.9189
vn -0.0000 0.1037 0.9946
vn -0.7033 0.1037 -0.7033
vn -0.3806 0.1037 -0.9189
vn 0.7033 0.1037 0.7033
vn -0.9189 0.1037 -0.3806
vn 0.9189 0.1037 0.3806
vn -0.9946 0.1037 -0.0000
vn 0.9946 0.1037 -0.0000
vn -0.9189 0.1037 0.3806
vn 0.9189 0.1037 -0.3806
vn -0.7033 0.1037 0.7033
vn 0.7033 0.1037 -0.7033
vn -0.3806 0.1037 0.9189
vn 0.3806 0.1037 -0.9189
vn -0.0000 0.1037 -0.9946
vn 0.3819 0.0635 -0.9220
vn -0.0000 0.0635 -0.9980
vn -0.3819 0.0635 -0.9220
vn -0.3819 0.0635 0.9220
vn -0.0000 0.0635 0.9980
vn 0.7057 0.0635 -0.7057
vn -0.7057 0.0635 0.7057
vn 0.9220 0.0635 -0.3819
vn -0.9220 0.0635 0.3819
vn 0.9980 0.0635 -0.0000
vn -0.9980 0.0635 -0.0000
vn 0.9220 0.0635 0.3819
vn -0.9220 0.0635 -0.3819
vn 0.7057 0.0635 0.7057
vn -0.7057 0.0635 -0.7057
vn 0.3819 0.0635 0.9220
vn 0.1380 -0.9327 0.3331
vn 0.0023 1.0000 -0.0056
vn -0.0000 -0.9327 -0.3605
vn -0.1380 -0.9327 -0.3331
vn -0.2549 -0.9327 -0.2549
vn 0.0043 1.0000 -0.0043
vn 0.2549 -0.9327 0.2549
vn 0.0056 1.0000 -0.0023
vn -0.3331 -0.9327 -0.1380
vn 0.0061 1.0000 -0.0000
vn 0.3331 -0.9327 0.1380
vn 0.0056 1.0000 0.0023
vn -0.0000 0.4285 -0.9036
vn -0.0000 0.7576 -0.6528
vn 0.3264 0.7576 -0.5653
vn 0.4518 0.4285 -0.7825
vn -0.0000 0.9845 -0.1756
vn -0.0000 1.0000 -0.0000
vn 0.0878 0.9845 -0.1521
vn -0.0000 -0.9845 -0.1756
vn 0.0878 -0.9845 -0.1521
vn -0.0000 -0.7576 -0.6528
vn -0.0000 -0.4285 -0.9036
vn 0.4518 -0.4285 -0.7825
vn 0.3264 -0.7576 -0.5653
vn -0.0000 -0.0000 -1.0000
vn 0.5000 -0.0000 -0.8660
vn -0.0000 0.8578 -0.5140
vn 0.2570 0.8578 -0.4451
vn -0.0000 -0.8578 -0.5140
vn 0.2570 -0.8578 -0.4451
vn 0.7825 -0.4285 -0.4518
vn 0.5653 -0.7576 -0.3264
vn 0.7825 0.4285 -0.4518
vn 0.8660 -0.0000 -0.5000
vn 0.4451 0.8578 -0.2570
vn 0.5653 0.7576 -0.3264
vn 0.4451 -0.8578 -0.2570
vn 0.1521 0.9845 -0.0878
vn 0.1521 -0.9845 -0.0878
vn 0.6528 -0.7576 -0.0000
vn 0.5140 -0.8578 -0.0000
vn 1.0000 -0.0000 -0.0000
vn 0.9036 -0.4285 -0.0000
vn 0.6528 0.7576 -0.0000
vn 0.9036 0.4285 -0.0000
vn 0.1756 0.9845 -0.0000
vn 0.1756 -0.9845 -0.0000
vn 0.5140 0.8578 -0.0000
vn 0.8660 -0.0000 0.5000
vn 0.7825 -0.4285 0.4518
vn 0.5653 0.7576 0.3264
vn 0.7825 0.4285 0.4518
vn 0.1521 0.9845 0.0878
vn 0.1521 -0.9845 0.0878
vn 0.5653 -0.7576 0.3264
vn 0.4451 0.8578 0.2570
vn 0.4451 -0.8578 0.2570
vn 0.0878 -0.9845 0.1521
vn 0.4518 -0.4285 0.7825
vn 0.3264 -0.7576 0.5653
vn 0.4518 0.4285 0.7825
vn 0.5000 -0.0000 0.8660
vn 0.2570 0.8578 0.4451
vn 0.3264 0.7576 0.5653
vn 0.2570 -0.8578 0.4451
vn 0.0878 0.9845 0.1521
vn -0.0000 0.4285 0.9036
vn -0.0000 -0.0000 1.0000
vn -0.0000 0.8578 0.5140
vn -0.0000 0.7576 0.6528
vn -0.0000 -0.7576 0.6528
vn -0.0000 -0.8578 0.5140
vn -0.0000 -0.4285 0.9036
vn -0.0000 0.9845 0.1756
vn -0.0000 -0.9845 0.1756
vn -0.3264 -0.7576 0.5653
vn -0.2570 -0.8578 0.4451
vn -0.5000 -0.0000 0.8660
vn -0.4518 -0.4285 0.7825
vn -0.3264 0.7576 0.5653
vn -0.4518 0.4285 0.7825
vn -0.0878 0.9845 0.1521
vn -0.0878 -0.9845 0.1521
vn -0.2570 0.8578 0.4451
vn -0.5653 0.7576 0.3264
vn -0.7825 0.4285 0.4518
vn -0.1521 0.9845 0.0878
vn -0.1521 -0.9845 0.0878
vn -0.7825 -0.4285 0.4518
vn -0.5653 -0.7576 0.3264
vn -0.8660 -0.0000 0.5000
vn -0.4451 0.8578 0.2570
vn -0.4451 -0.8578 0.2570
vn -0.1756 -0.9845 -0.0000
vn -0.9036 -0.4285 -0.0000
vn -0.6528 -0.7576 -0.0000
vn -0.9036 0.4285 -0.0000
vn -1.0000 -0.0000 -0.0000
vn -0.5140 0.8578 -0.0000
vn -0.6528 0.7576 -0.0000
vn -0.5140 -0.8578 -0.0000
vn -0.1756 0.9845 -0.0000
vn -0.4451 0.8578 -0.2570
vn -0.5653 0.7576 -0.3264
vn -0.5653 -0.7576 -0.3264
vn -0.4451 -0.8578 -0.2570
vn -0.8660 -0.0000 -0.5000
vn -0.7825 -0.4285 -0.4518
vn -0.7825 0.4285 -0.4518
vn -0.1521 0.9845 -0.0878
vn -0.1521 -0.9845 -0.0878
vn -0.3264 -0.7576 -0.5653
vn -0.2570 -0.8578 -0.4451
vn -0.5000 -0.0000 -0.8660
vn -0.4518 -0.4285 -0.7825
vn -0.3264 0.7576 -0.5653
vn -0.4518 0.4285 -0.7825
vn -0.0878 0.9845 -0.1521
vn -0.0878 -0.9845 -0.1521
vn -0.2570 0.8578 -0.4451
vt 1.000000 0.500000
vt 1.000000 1.000000
vt 0.937500 1.000000
vt 0.937500 0.500000
vt 0.875000 1.000000
vt 0.875000 0.500000
vt 0.812500 1.000000
vt 0.812500 0.500000
vt 0.750000 1.000000
vt 0.750000 0.500000
vt 0.687500 1.000000
vt 0.687500 0.500000
vt 0.625000 1.000000
vt 0.625000 0.500000
vt 0.562500 1.000000
vt 0.562500 0.500000
vt 0.500000 1.000000
vt 0.500000 0.500000
vt 0.437500 1.000000
vt 0.437500 0.500000
vt 0.375000 1.000000
vt 0.375000 0.500000
vt 0.312500 1.000000
vt 0.312500 0.500000
vt 0.250000 1.000000
vt 0.250000 0.500000
vt 0.187500 1.000000
vt 0.187500 0.500000
vt 0.125000 1.000000
vt 0.125000 0.500000
vt 0.062500 1.000000
vt 0.062500 0.500000
vt 0.000000 1.000000
vt 0.000000 0.500000
vt 0.750000 0.490000
vt 0.841844 0.471731
vt 0.919706 0.419706
vt 0.971731 0.341844
vt 0.990000 0.250000
vt 0.971731 0.158156
vt 0.919706 0.080294
vt 0.841844 0.028269
vt 0.750000 0.010000
vt 0.658156 0.028269
vt 0.580294 0.080294
vt 0.528269 0.158156
vt 0.510000 0.250000
vt 0.528269 0.341844
vt 0.580294 0.419706
vt 0.658156 0.471731
vt 0.341844 0.471731
vt 0.250000 0.490000
vt 0.158156 0.471731
vt 0.080294 0.419706
vt 0.028269 0.341844
vt 0.010000 0.250000
vt 0.028269 0.158156
vt 0.080294 0.080294
vt 0.158156 0.028269
vt 0.250000 0.010000
vt 0.341844 0.028269
vt 0.419706 0.080294
vt 0.471731 0.158156
vt 0.490000 0.250000
vt 0.471731 0.341844
vt 0.419706 0.419706
vt 0.875000 1.000000
vt 0.625000 1.000000
vt 0.750000 0.625000
vt 0.750000 0.750000
vt 0.666667 0.750000
vt 0.666667 0.625000
vt 0.750000 0.875000
vt 0.708333 1.000000
vt 0.666667 0.875000
vt 0.708333 0.000000
vt 0.750000 0.125000
vt 0.666667 0.125000
vt 0.750000 0.250000
vt 0.750000 0.375000
vt 0.666667 0.375000
vt 0.666667 0.250000
vt 0.666667 0.500000
vt 0.583333 0.375000
vt 0.583333 0.250000
vt 0.583333 0.625000
vt 0.583333 0.500000
vt 0.583333 0.875000
vt 0.583333 0.750000
vt 0.583333 0.125000
vt 0.625000 0.000000
vt 0.500000 0.250000
vt 0.500000 0.125000
vt 0.500000 0.375000
vt 0.500000 0.750000
vt 0.500000 0.625000
vt 0.541667 1.000000
vt 0.500000 0.875000
vt 0.541667 0.000000
vt 0.416667 0.500000
vt 0.416667 0.375000
vt 0.416667 0.750000
vt 0.416667 0.625000
vt 0.458333 1.000000
vt 0.416667 0.875000
vt 0.458333 0.000000
vt 0.416667 0.125000
vt 0.416667 0.250000
vt 0.375000 0.000000
vt 0.333333 0.125000
vt 0.333333 0.375000
vt 0.333333 0.250000
vt 0.333333 0.625000
vt 0.333333 0.500000
vt 0.333333 0.875000
vt 0.333333 0.750000
vt 0.250000 0.625000
vt 0.250000 0.875000
vt 0.250000 0.750000
vt 0.250000 0.250000
vt 0.250000 0.125000
vt 0.250000 0.375000
vt 0.291667 1.000000
vt 0.291667 0.000000
vt 0.166667 0.250000
vt 0.166667 0.125000
vt 0.166667 0.500000
vt 0.166667 0.375000
vt 0.166667 0.750000
vt 0.166667 0.625000
vt 0.208333 1.000000
vt 0.166667 0.875000
vt 0.208333 0.000000
vt 0.083333 0.750000
vt 0.083333 0.625000
vt 0.083333 0.875000
vt 0.125000 0.000000
vt 0.083333 0.125000
vt 0.083333 0.375000
vt 0.083333 0.250000
vt 0.083333 0.500000
vt 0.041667 0.000000
vt 0.000000 0.125000
vt 0.000000 0.375000
vt 0.000000 0.250000
vt 0.000000 0.625000
vt 0.000000 0.875000
vt 0.000000 0.750000
vt 0.041667 1.000000
vt 1.000000 0.750000
vt 1.000000 0.875000
vt 0.916667 0.875000
vt 0.916667 0.750000
vt 1.000000 0.125000
vt 1.000000 0.250000
vt 0.916667 0.250000
vt 0.916667 0.125000
vt 1.000000 0.375000
vt 0.916667 0.500000
vt 0.916667 0.375000
vt 1.000000 0.625000
vt 0.916667 0.625000
vt 0.958333 1.000000
vt 0.958333 0.000000
vt 0.833333 0.250000
vt 0.833333 0.125000
vt 0.833333 0.500000
vt 0.833333 0.375000
vt 0.833333 0.750000
vt 0.833333 0.625000
vt 0.833333 0.875000
vt 0.875000 0.000000
vt 0.791667 1.000000
vt 0.791667 0.000000
s 1
f 1/1/1 2/2/2 4/3/3 3/4/4
f 3/4/4 4/3/3 6/5/5 5/6/6
f 5/6/6 6/5/5 8/7/7 7/8/8
f 7/8/8 8/7/7 10/9/9 9/10/10
f 9/10/10 10/9/9 12/11/11 11/12/12
f 11/12/12 12/11/11 14/13/13 13/14/14
f 13/14/14 14/13/13 16/15/15 15/16/16
f 15/16/16 16/15/15 18/17/17 17/18/18
f 17/18/18 18/17/17 20/19/19 19/20/20
f 19/20/20 20/19/19 22/21/21 21/22/22
f 21/22/22 22/21/21 24/23/23 23/24/24
f 23/24/24 24/23/23 26/25/25 25/26/26
f 25/26/26 26/25/25 28/27/27 27/28/28
f 27/28/28 28/27/27 30/29/29 29/30/30
f 12/11/11 10/9/9 37/9/31 38/11/32
f 29/30/30 30/29/29 32/31/33 31/32/34
f 31/32/34 32/31/33 2/33/2 1/34/1
f 1/35/35 3/36/35 5/37/35 7/38/35 9/39/35 11/40/35 13/41/35 15/42/35 17/43/35 19/44/35 21/45/35 23/46/35 25/47/35 27/48/35 29/49/35 31/50/35
f 44/23/36 43/21/37 59/21/38 60/23/39
f 22/21/21 20/19/19 42/19/40 43/21/37
f 32/31/33 30/29/29 47/29/41 48/31/42
f 8/7/7 6/5/5 35/5/43 36/7/44
f 18/17/17 16/15/15 40/15/45 41/17/46
f 4/3/3 2/2/2 34/2/47 33/3/48
f 28/27/27 26/25/25 45/25/49 46/27/50
f 14/13/13 12/11/11 38/11/32 39/13/51
f 24/23/23 22/21/21 43/21/37 44/23/36
f 2/33/2 32/31/33 48/31/42 34/33/47
f 10/9/9 8/7/7 36/7/44 37/9/31
f 20/19/19 18/17/17 41/17/46 42/19/40
f 30/29/29 28/27/27 46/27/50 47/29/41
f 6/5/5 4/3/3 33/3/48 35/5/43
f 16/15/15 14/13/13 39/13/51 40/15/45
f 26/25/25 24/23/23 44/23/36 45/25/49
f 85/19/52 84/17/53 115/17/53 117/19/52
f 37/9/31 36/7/44 52/7/54 53/9/55
f 45/25/49 44/23/36 60/23/39 61/25/56
f 38/11/32 37/9/31 53/9/55 54/11/57
f 46/27/50 45/25/49 61/25/56 62/27/58
f 39/13/51 38/11/32 54/11/57 55/13/59
f 47/29/41 46/27/50 62/27/58 63/29/60
f 40/15/45 39/13/51 55/13/59 56/15/61
f 48/31/42 47/29/41 63/29/60 64/31/62
f 41/17/46 40/15/45 56/15/61 57/17/63
f 33/3/48 34/2/47 50/2/64 49/3/65
f 34/33/47 48/31/42 64/31/62 50/33/64
f 42/19/40 41/17/46 57/17/63 58/19/66
f 35/5/43 33/3/48 49/3/65 51/5/67
f 43/21/37 42/19/40 58/19/66 59/21/38
f 36/7/44 35/5/43 51/5/67 52/7/54
f 65/51/68 66/52/69 80/53/70 79/54/71 78/55/72 77/56/73 76/57/74 75/58/75 74/59/76 73/60/77 72/61/78 71/62/79 70/63/80 69/64/81 68/65/82 67/66/83
f 72/61/78 73/60/77 105/60/84 104/61/85
f 86/67/86 82/3/87 116/3/87 118/67/86
f 71/62/79 72/61/78 104/61/85 103/62/88
f 87/21/89 85/19/52 117/19/52 119/21/89
f 70/63/80 71/62/79 103/62/88 102/63/90
f 88/7/91 86/67/86 118/67/86 120/7/91
f 69/64/81 70/63/80 102/63/90 101/64/92
f 89/23/93 87/21/89 119/21/89 121/23/93
f 68/65/82 69/64/81 101/64/92 100/65/94
f 90/9/95 88/7/91 120/7/91 122/9/95
f 67/66/83 68/65/82 100/65/94 99/66/96
f 80/53/70 66/52/69 98/52/97 112/53/98
f 91/25/99 89/23/93 121/23/93 123/25/99
f 65/51/68 67/66/83 99/66/96 97/51/100
f 79/54/71 80/53/70 112/53/98 111/54/101
f 57/17/63 56/15/61 96/15/102 84/17/103
f 64/31/62 63/29/60 95/29/104 83/31/105
f 56/15/61 55/13/59 94/68/106 96/15/102
f 63/29/60 62/27/58 93/27/107 95/29/104
f 55/13/59 54/11/57 92/11/108 94/68/106
f 62/27/58 61/25/56 91/25/109 93/27/107
f 54/11/57 53/9/55 90/9/110 92/11/108
f 61/25/56 60/23/39 89/23/111 91/25/109
f 53/9/55 52/7/54 88/7/112 90/9/110
f 60/23/39 59/21/38 87/21/113 89/23/111
f 52/7/54 51/5/67 86/67/114 88/7/112
f 59/21/38 58/19/66 85/19/115 87/21/113
f 51/5/67 49/3/65 82/3/116 86/67/114
f 58/19/66 57/17/63 84/17/103 85/19/115
f 50/33/64 64/31/62 83/31/105 81/33/117
f 49/3/65 50/2/64 81/2/117 82/3/116
f 116/3/118 113/2/119 98/2/119 97/3/118
f 113/33/119 114/31/120 112/31/120 98/33/119
f 117/19/121 115/17/122 105/17/122 106/19/121
f 118/67/123 116/3/118 97/3/118 99/5/123
f 119/21/124 117/19/121 106/19/121 107/21/124
f 120/7/125 118/67/123 99/5/123 100/7/125
f 121/23/126 119/21/124 107/21/124 108/23/126
f 122/9/127 120/7/125 100/7/125 101/9/127
f 123/25/128 121/23/126 108/23/126 109/25/128
f 124/11/129 122/9/127 101/9/127 102/11/129
f 125/27/130 123/25/128 109/25/128 110/27/130
f 126/68/131 124/11/129 102/11/129 103/13/131
f 127/29/132 125/27/130 110/27/130 111/29/132
f 128/15/133 126/68/131 103/13/131 104/15/133
f 114/31/120 127/29/132 111/29/132 112/31/120
f 115/17/122 128/15/133 104/15/133 105/17/122
f 84/17/53 96/15/134 128/15/134 115/17/53
f 73/60/77 74/59/76 106/59/135 105/60/84
f 81/33/136 83/31/137 114/31/137 113/33/136
f 83/31/137 95/29/138 127/29/138 114/31/137
f 74/59/76 75/58/75 107/58/139 106/59/135
f 82/3/87 81/2/136 113/2/136 116/3/87
f 96/15/134 94/68/140 126/68/140 128/15/134
f 75/58/75 76/57/74 108/57/141 107/58/139
f 95/29/138 93/27/142 125/27/142 127/29/138
f 76/57/74 77/56/73 109/56/143 108/57/141
f 94/68/140 92/11/144 124/11/144 126/68/140
f 77/56/73 78/55/72 110/55/145 109/56/143
f 93/27/142 91/25/99 123/25/99 125/27/142
f 78/55/72 79/54/71 111/54/101 110/55/145
f 66/52/69 65/51/68 97/51/100 98/52/97
f 92/11/144 90/9/95 122/9/95 124/11/144
f 210/69/146 129/70/147 131/71/148 132/72/149
f 209/73/150 179/74/151 130/75/152
f 187/76/35 214/77/153 136/78/154
f 213/79/155 212/80/156 134/81/157 135/82/158
f 211/10/159 210/69/146 132/72/149 133/83/160
f 129/70/147 209/73/161 130/75/162 131/71/148
f 214/77/163 213/79/155 135/82/158 136/78/164
f 212/80/156 211/10/159 133/83/160 134/81/157
f 135/82/158 134/81/157 141/84/165 142/85/166
f 133/83/160 132/72/149 139/86/167 140/87/168
f 131/71/148 130/75/162 137/88/169 138/89/170
f 136/78/164 135/82/158 142/85/166 143/90/171
f 134/81/157 133/83/160 140/87/168 141/84/165
f 132/72/149 131/71/148 138/89/170 139/86/167
f 130/75/152 179/13/151 137/88/172
f 187/91/35 136/78/154 143/90/173
f 143/90/171 142/85/166 149/92/174 150/93/175
f 141/84/165 140/87/168 147/18/176 148/94/177
f 139/86/167 138/89/170 145/95/178 146/96/179
f 137/88/172 179/97/151 144/98/180
f 187/99/35 143/90/173 150/93/181
f 142/85/166 141/84/165 148/94/177 149/92/174
f 140/87/168 139/86/167 146/96/179 147/18/176
f 138/89/170 137/88/169 144/98/182 145/95/178
f 148/94/177 147/18/176 154/100/183 155/101/184
f 146/96/179 145/95/178 152/102/185 153/103/186
f 144/98/180 179/104/151 151/105/187
f 187/106/35 150/93/181 157/107/188
f 149/92/174 148/94/177 155/101/184 156/108/189
f 147/18/176 146/96/179 153/103/186 154/100/183
f 145/95/178 144/98/182 151/105/190 152/102/185
f 150/93/175 149/92/174 156/108/189 157/107/191
f 187/109/35 157/107/188 164/110/192
f 156/108/189 155/101/184 162/111/193 163/112/194
f 154/100/183 153/103/186 160/113/195 161/114/196
f 152/102/185 151/105/190 158/115/197 159/116/198
f 157/107/191 156/108/189 163/112/194 164/110/199
f 155/101/184 154/100/183 161/114/196 162/111/193
f 153/103/186 152/102/185 159/116/198 160/113/195
f 151/105/187 179/21/151 158/115/200
f 161/114/196 160/113/195 167/117/201 168/26/202
f 159/116/198 158/115/197 165/118/203 166/119/204
f 164/110/199 163/112/194 170/120/205 171/121/206
f 162/111/193 161/114/196 168/26/202 169/122/207
f 160/113/195 159/116/198 166/119/204 167/117/201
f 158/115/200 179/123/151 165/118/208
f 187/124/35 164/110/192 171/121/209
f 163/112/194 162/111/193 169/122/207 170/120/205
f 171/121/206 170/120/205 177/125/210 178/126/211
f 169/122/207 168/26/202 175/127/212 176/128/213
f 167/117/201 166/119/204 173/129/214 174/130/215
f 165/118/208 179/131/151 172/132/216
f 187/133/35 171/121/209 178/126/217
f 170/120/205 169/122/207 176/128/213 177/125/210
f 168/26/202 167/117/201 174/130/215 175/127/212
f 166/119/204 165/118/203 172/132/218 173/129/214
f 174/130/215 173/129/214 181/134/219 182/135/220
f 172/132/216 179/29/151 180/136/221
f 187/137/35 178/126/217 186/138/222
f 177/125/210 176/128/213 184/139/223 185/140/224
f 175/127/212 174/130/215 182/135/220 183/141/225
f 173/129/214 172/132/218 180/136/226 181/134/219
f 178/126/211 177/125/210 185/140/224 186/138/227
f 176/128/213 175/127/212 183/141/225 184/139/223
f 187/142/35 186/138/222 194/143/228
f 185/140/224 184/139/223 192/144/229 193/145/230
f 183/141/225 182/135/220 190/146/231 191/34/232
f 181/134/219 180/136/226 188/147/233 189/148/234
f 186/138/227 185/140/224 193/145/230 194/143/235
f 184/139/223 183/141/225 191/34/232 192/144/229
f 182/135/220 181/134/219 189/148/234 190/146/231
f 180/136/221 179/149/151 188/147/236
f 189/150/234 188/151/233 195/152/237 196/153/238
f 194/154/235 193/155/230 200/156/239 201/157/240
f 192/158/229 191/1/232 198/159/241 199/160/242
f 190/161/231 189/150/234 196/153/238 197/162/243
f 188/151/236 179/163/151 195/152/244
f 187/164/35 194/154/228 201/157/245
f 193/155/230 192/158/229 199/160/242 200/156/239
f 191/1/232 190/161/231 197/162/243 198/159/241
f 201/157/240 200/156/239 207/165/246 208/166/247
f 199/160/242 198/159/241 205/167/248 206/168/249
f 197/162/243 196/153/238 203/169/250 204/170/251
f 195/152/244 179/5/151 202/171/252
f 187/172/35 201/157/245 208/166/253
f 200/156/239 199/160/242 206/168/249 207/165/246
f 198/159/241 197/162/243 204/170/251 205/167/248
f 196/153/238 195/152/237 202/171/254 203/169/250
f 202/171/252 179/173/151 209/73/150
f 187/174/35 208/166/253 214/77/153
f 207/165/246 206/168/249 212/80/156 213/79/155
f 205/167/248 204/170/251 210/69/146 211/10/159
f 203/169/250 202/171/254 209/73/161 129/70/147
f 208/166/247 207/165/246 213/79/155 214/77/163
f 206/168/249 205/167/248 211/10/159 212/80/156
f 204/170/251 203/169/250 129/70/147 210/69/146
