# Blender 4.4.3
# www.blender.org
o Queen
v 0.000000 -0.002696 -0.334361
v 0.000000 0.155654 -0.288261
v 0.127955 -0.002696 -0.308910
v 0.110313 0.155654 -0.266319
v 0.236429 -0.002696 -0.236429
v 0.203831 0.155654 -0.203831
v 0.308910 -0.002696 -0.127955
v 0.266319 0.155654 -0.110313
v 0.334361 -0.002696 0.000000
v 0.288261 0.155654 0.000000
v 0.308910 -0.002696 0.127955
v 0.266319 0.155654 0.110313
v 0.236429 -0.002696 0.236429
v 0.203831 0.155654 0.203831
v 0.127955 -0.002696 0.308910
v 0.110313 0.155654 0.266319
v 0.000000 -0.002696 0.334361
v 0.000000 0.155654 0.288261
v -0.127955 -0.002696 0.308910
v -0.110313 0.155654 0.266319
v -0.236429 -0.002696 0.236429
v -0.203831 0.155654 0.203831
v -0.308910 -0.002696 0.127955
v -0.266319 0.155654 0.110313
v -0.334361 -0.002696 0.000000
v -0.288261 0.155654 0.000000
v -0.308910 -0.002696 -0.127955
v -0.266319 0.155654 -0.110313
v -0.236429 -0.002696 -0.236429
v -0.203831 0.155654 -0.203831
v -0.127955 -0.002696 -0.308910
v -0.110313 0.155654 -0.266319
v 0.049334 0.439456 -0.119102
v -0.000000 0.439456 -0.128915
v 0.091157 0.439456 -0.091157
v 0.119102 0.439456 -0.049334
v 0.128915 0.439456 -0.000000
v 0.119102 0.439456 0.049334
v 0.091157 0.439456 0.091157
v 0.049334 0.439456 0.119102
v -0.000000 0.439456 0.128915
v -0.049334 0.439456 0.119102
v -0.091157 0.439456 0.091157
v -0.119102 0.439456 0.049334
v -0.128915 0.439456 -0.000000
v -0.119102 0.439456 -0.049334
v -0.091157 0.439456 -0.091157
v -0.049334 0.439456 -0.119102
v 0.049334 0.559656 -0.119102
v -0.000000 0.559656 -0.128915
v 0.091157 0.559656 -0.091157
v 0.119102 0.559656 -0.049334
v 0.128915 0.559656 -0.000000
v 0.119102 0.559656 0.049334
v 0.091157 0.559656 0.091157
v 0.049334 0.559656 0.119102
v -0.000000 0.559656 0.128915
v -0.049334 0.559656 0.119102
v -0.091157 0.559656 0.091157
v -0.119102 0.559656 0.049334
v -0.128915 0.559656 -0.000000
v -0.119102 0.559656 -0.049334
v -0.091157 0.559656 -0.091157
v -0.049334 0.559656 -0.119102
v 0.066595 0.283418 -0.160774
v -0.000000 0.283418 -0.174021
v 0.123051 0.283418 -0.123051
v 0.160774 0.283418 -0.066595
v 0.174021 0.283418 -0.000000
v 0.160774 0.283418 0.066595
v 0.123051 0.283418 0.123051
v 0.066595 0.283418 0.160774
v -0.000000 0.283418 0.174021
v -0.066595 0.283418 0.160774
v -0.123051 0.283418 0.123051
v -0.160774 0.283418 0.066595
v -0.174021 0.283418 -0.000000
v -0.160774 0.283418 -0.066595
v -0.123051 0.283418 -0.123051
v -0.066595 0.283418 -0.160774
v 0.066595 0.715693 -0.160774
v -0.000000 0.715693 -0.174021
v 0.123051 0.715693 -0.123051
v 0.160774 0.715693 -0.066595
v 0.174021 0.715693 -0.000000
v 0.160774 0.715693 0.066595
v 0.123051 0.715693 0.123051
v 0.066595 0.715693 0.160774
v -0.000000 0.715693 0.174021
v -0.066595 0.715693 0.160774
v -0.123051 0.715693 0.123051
v -0.160774 0.715693 0.066595
v -0.174021 0.715693 -0.000000
v -0.160774 0.715693 -0.066595
v -0.123051 0.715693 -0.123051
v -0.066595 0.715693 -0.160774
v 0.066595 0.790193 -0.160774
v -0.000000 0.790193 -0.174021
v 0.123051 0.790193 -0.123051
v 0.160774 0.790193 -0.066595
v 0.174021 0.790193 -0.000000
v 0.160774 0.790193 0.066595
v 0.123051 0.790193 0.123051
v 0.066595 0.790193 0.160774
v -0.000000 0.790193 0.174021
v -0.066595 0.790193 0.160774
v -0.123051 0.790193 0.123051
v -0.160774 0.790193 0.066595
v -0.174021 0.790193 -0.000000
v -0.160774 0.790193 -0.066595
v -0.123051 0.790193 -0.123051
v -0.066595 0.790193 -0.160774
v 0.085156 0.790193 -0.205586
v 0.000000 0.790193 -0.222524
v 0.157348 0.790193 -0.157348
v 0.205586 0.790193 -0.085156
v 0.222524 0.790193 0.000000
v 0.205586 0.790193 0.085156
v 0.157348 0.790193 0.157348
v 0.085156 0.790193 0.205586
v 0.000000 0.790193 0.222524
v -0.085156 0.790193 0.205586
v -0.157348 0.790193 0.157348
v -0.205586 0.790193 0.085156
v -0.222524 0.790193 0.000000
v -0.205586 0.790193 -0.085156
v -0.157348 0.790193 -0.157348
v -0.085156 0.790193 -0.205586
v 0.072769 0.911969 -0.175680
v -0.000000 0.911969 -0.190155
v 0.134460 0.911969 -0.134460
v 0.175680 0.911969 -0.072769
v 0.190155 0.911969 -0.000000
v 0.175680 0.911969 0.072769
v 0.134460 0.911969 0.134460
v 0.072769 0.911969 0.175680
v -0.000000 0.911969 0.190155
v -0.072769 0.911969 0.175680
v -0.134460 0.911969 0.134460
v -0.175680 0.911969 0.072769
v -0.190155 0.911969 -0.000000
v -0.175680 0.911969 -0.072769
v -0.134460 0.911969 -0.134460
v -0.072769 0.911969 -0.175680
v 0.096792 0.885690 -0.233677
v -0.000000 0.885690 -0.252930
v 0.178848 0.885690 -0.178848
v 0.233677 0.885690 -0.096792
v 0.252930 0.885690 0.000000
v 0.233677 0.885690 0.096792
v 0.178848 0.885690 0.178848
v 0.096792 0.885690 0.233677
v -0.000000 0.885690 0.252930
v -0.096792 0.885690 0.233677
v -0.178848 0.885690 0.178848
v -0.233677 0.885690 0.096792
v -0.252930 0.885690 0.000000
v -0.233677 0.885690 -0.096792
v -0.178848 0.885690 -0.178848
v -0.096792 0.885690 -0.233677
v 0.087546 0.812615 0.058074
v 0.103153 1.260520 0.058074
v 0.087546 0.812615 -0.058074
v 0.103153 1.260520 -0.058074
v 0.043417 1.139800 -0.058074
v 0.043417 1.139800 0.058074
v 0.050733 1.070069 -0.058074
v 0.050733 1.070069 0.058074
v 0.070119 1.221599 -0.056791
v 0.070119 1.221599 0.056791
v 0.061205 1.139800 -0.058074
v 0.061205 1.139800 0.058074
v 0.050733 1.070069 -0.058074
v 0.050733 1.070069 0.058074
v 0.000000 0.812615 -0.058074
v 0.000000 1.251982 -0.058074
v 0.000000 0.812615 0.058074
v 0.000000 1.251982 0.058074
v 0.000000 1.147862 0.058074
v 0.000000 1.147862 -0.058074
v 0.000000 1.062006 -0.058074
v 0.000000 1.062006 0.058074
v 0.000000 1.210214 0.056791
v 0.000000 1.210214 -0.056791
v 0.173810 1.169271 -0.058074
v 0.173810 1.169271 0.058074
v 0.175302 1.040597 -0.058074
v 0.175302 1.040597 0.058074
v 0.133594 1.148169 0.058074
v 0.133594 1.148169 -0.058074
v 0.130813 1.061700 -0.058074
v 0.130813 1.061700 0.058074
v 0.097400 1.139924 -0.058074
v 0.090773 1.069944 0.058074
v 0.097400 1.139924 0.058074
v 0.090773 1.069944 -0.058074
v 0.052099 1.173584 -0.057432
v 0.052099 1.173584 0.057432
v 0.000000 1.171923 -0.057432
v 0.000000 1.171923 0.057432
v -0.087546 0.812615 0.058074
v -0.103153 1.260520 0.058074
v -0.087546 0.812615 -0.058074
v -0.103153 1.260520 -0.058074
v -0.043417 1.139800 -0.058074
v -0.043417 1.139800 0.058074
v -0.050733 1.070069 -0.058074
v -0.050733 1.070069 0.058074
v -0.070119 1.221599 -0.056791
v -0.070119 1.221599 0.056791
v -0.061205 1.139800 -0.058074
v -0.061205 1.139800 0.058074
v -0.050733 1.070069 -0.058074
v -0.050733 1.070069 0.058074
v -0.173810 1.169271 -0.058074
v -0.173810 1.169271 0.058074
v -0.175302 1.040597 -0.058074
v -0.175302 1.040597 0.058074
v -0.133594 1.148169 0.058074
v -0.133594 1.148169 -0.058074
v -0.130813 1.061700 -0.058074
v -0.130813 1.061700 0.058074
v -0.097400 1.139924 -0.058074
v -0.090773 1.069944 0.058074
v -0.097400 1.139924 0.058074
v -0.090773 1.069944 -0.058074
v -0.052099 1.173584 -0.057432
v -0.052099 1.173584 0.057432
vn -0.0000 0.2795 -0.9601
vn -0.0000 0.4999 -0.8661
vn 0.3314 0.4999 -0.8001
vn 0.3674 0.2795 -0.8871
vn 0.6124 0.4999 -0.6124
vn 0.6789 0.2795 -0.6789
vn 0.8001 0.4999 -0.3314
vn 0.8871 0.2795 -0.3674
vn 0.8661 0.4999 -0.0000
vn 0.9601 0.2795 -0.0000
vn 0.8001 0.4999 0.3314
vn 0.8871 0.2795 0.3674
vn 0.6124 0.4999 0.6124
vn 0.6789 0.2795 0.6789
vn 0.3314 0.4999 0.8001
vn 0.3674 0.2795 0.8871
vn -0.0000 0.4999 0.8661
vn -0.0000 0.2795 0.9601
vn -0.3314 0.4999 0.8001
vn -0.3674 0.2795 0.8871
vn -0.6124 0.4999 0.6124
vn -0.6789 0.2795 0.6789
vn -0.8001 0.4999 0.3314
vn -0.8871 0.2795 0.3674
vn -0.8661 0.4999 -0.0000
vn -0.9601 0.2795 -0.0000
vn -0.8001 0.4999 -0.3314
vn -0.8871 0.2795 -0.3674
vn -0.6124 0.4999 -0.6124
vn -0.6789 0.2795 -0.6789
vn 0.7949 0.5097 -0.3292
vn 0.8603 0.5097 -0.0000
vn -0.3314 0.4999 -0.8001
vn -0.3674 0.2795 -0.8871
vn -0.0000 -1.0000 -0.0000
vn -0.0000 0.1436 0.9896
vn 0.3787 0.1436 0.9143
vn 0.3787 -0.1436 0.9143
vn -0.0000 -0.1436 0.9896
vn -0.0000 0.5097 0.8603
vn -0.3292 0.5097 0.7949
vn -0.7949 0.5097 -0.3292
vn -0.6084 0.5097 -0.6084
vn 0.3292 0.5097 -0.7949
vn 0.6084 0.5097 -0.6084
vn 0.6084 0.5097 0.6084
vn 0.3292 0.5097 0.7949
vn -0.7949 0.5097 0.3292
vn -0.8603 0.5097 -0.0000
vn 0.7949 0.5097 0.3292
vn -0.6084 0.5097 0.6084
vn -0.3292 0.5097 -0.7949
vn -0.0000 0.5097 -0.8603
vn 0.3787 0.1436 -0.9143
vn -0.0000 0.1436 -0.9896
vn -0.0000 -0.1436 -0.9896
vn 0.3787 -0.1436 -0.9143
vn -0.3787 0.1436 -0.9143
vn -0.3787 -0.1436 -0.9143
vn -0.3787 0.1436 0.9143
vn -0.3787 -0.1436 0.9143
vn 0.6998 0.1436 -0.6998
vn 0.6998 -0.1436 -0.6998
vn -0.6998 0.1436 0.6998
vn -0.6998 -0.1436 0.6998
vn 0.9143 0.1436 -0.3787
vn 0.9143 -0.1436 -0.3787
vn -0.9143 0.1436 0.3787
vn -0.9143 -0.1436 0.3787
vn 0.9896 0.1436 -0.0000
vn 0.9896 -0.1436 -0.0000
vn -0.9896 0.1436 -0.0000
vn -0.9896 -0.1436 -0.0000
vn 0.9143 0.1436 0.3787
vn 0.9143 -0.1436 0.3787
vn -0.9143 0.1436 -0.3787
vn -0.9143 -0.1436 -0.3787
vn 0.6998 0.1436 0.6998
vn 0.6998 -0.1436 0.6998
vn -0.6998 0.1436 -0.6998
vn -0.6998 -0.1436 -0.6998
vn -0.7000 -0.1417 -0.7000
vn -0.9146 -0.1417 -0.3788
vn -0.9239 -0.0000 -0.3827
vn -0.7071 -0.0000 -0.7071
vn -0.0000 -0.1417 -0.9899
vn 0.3788 -0.1417 -0.9146
vn 0.7000 -0.1417 -0.7000
vn 0.9146 -0.1417 -0.3788
vn 0.9899 -0.1417 -0.0000
vn 0.9146 -0.1417 0.3788
vn 0.7000 -0.1417 0.7000
vn 0.3788 -0.1417 0.9146
vn -0.0000 -0.1417 0.9899
vn -0.3788 -0.1417 0.9146
vn -0.7000 -0.1417 0.7000
vn -0.9146 -0.1417 0.3788
vn -0.9899 -0.1417 -0.0000
vn -0.3788 -0.1417 -0.9146
vn 0.7071 -0.0000 0.7071
vn 0.3827 -0.0000 0.9239
vn -0.3827 -0.0000 -0.9239
vn -0.0000 -0.0000 1.0000
vn -0.0000 -0.0000 -1.0000
vn 0.3827 -0.0000 -0.9239
vn -0.3827 -0.0000 0.9239
vn 0.7071 -0.0000 -0.7071
vn -0.7071 -0.0000 0.7071
vn 0.9239 -0.0000 -0.3827
vn -0.9239 -0.0000 0.3827
vn 1.0000 -0.0000 -0.0000
vn -1.0000 -0.0000 -0.0000
vn 0.9239 -0.0000 0.3827
vn 0.3646 -0.3034 0.8803
vn 0.6738 -0.3034 0.6738
vn -0.3646 -0.3034 -0.8803
vn -0.6738 -0.3034 -0.6738
vn -0.0000 -0.3034 0.9529
vn 0.3646 -0.3034 -0.8803
vn -0.0000 -0.3034 -0.9529
vn -0.3646 -0.3034 0.8803
vn 0.6738 -0.3034 -0.6738
vn -0.6738 -0.3034 0.6738
vn 0.8803 -0.3034 -0.3646
vn -0.8803 -0.3034 0.3646
vn 0.9529 -0.3034 -0.0000
vn -0.9529 -0.3034 -0.0000
vn 0.8803 -0.3034 0.3646
vn -0.8803 -0.3034 -0.3646
vn -0.0000 0.9224 -0.3862
vn 0.1478 0.9224 -0.3568
vn 0.2731 0.9224 -0.2731
vn 0.3568 0.9224 -0.1478
vn 0.3862 0.9224 -0.0000
vn 0.3568 0.9224 0.1478
vn 0.2731 0.9224 0.2731
vn 0.1478 0.9224 0.3568
vn -0.0000 0.9224 0.3862
vn -0.1478 0.9224 0.3568
vn -0.2731 0.9224 0.2731
vn -0.3568 0.9224 0.1478
vn -0.3862 0.9224 -0.0000
vn -0.3568 0.9224 -0.1478
vn -0.2731 0.9224 -0.2731
vn -0.1478 0.9224 -0.3568
vn -0.0000 1.0000 -0.0000
vn 0.0038 -0.0334 -0.9994
vn 0.7624 -0.6471 -0.0000
vn 0.9899 0.1415 -0.0000
vn 0.9362 -0.3514 -0.0000
vn -0.0016 0.0152 -0.9999
vn -0.4647 0.8855 -0.0000
vn -0.0016 0.0152 0.9999
vn -0.0825 0.9966 -0.0000
vn 0.0038 -0.0334 0.9994
vn 0.9999 0.0116 -0.0000
vn -0.4286 -0.9035 -0.0000
vn -0.2017 -0.9795 -0.0000
vn -0.2221 0.9750 -0.0000
vn -0.0034 1.0000 -0.0000
vn -0.0031 -1.0000 -0.0000
vn 0.0015 0.0220 0.9998
vn 0.0015 0.0220 -0.9998
vn 0.9685 -0.2489 -0.0000
vn -0.0038 -0.0334 -0.9994
vn -0.7624 -0.6471 -0.0000
vn -0.9899 0.1415 -0.0000
vn -0.9362 -0.3514 -0.0000
vn 0.0016 0.0152 -0.9999
vn 0.4647 0.8855 -0.0000
vn 0.0016 0.0152 0.9999
vn 0.0825 0.9966 -0.0000
vn -0.0038 -0.0334 0.9994
vn -0.9999 0.0116 -0.0000
vn 0.4286 -0.9035 -0.0000
vn 0.2017 -0.9795 -0.0000
vn 0.2221 0.9750 -0.0000
vn 0.0034 1.0000 -0.0000
vn 0.0031 -1.0000 -0.0000
vn -0.0015 0.0220 0.9998
vn -0.0015 0.0220 -0.9998
vn -0.9685 -0.2489 -0.0000
vt 1.000000 0.500000
vt 1.000000 1.000000
vt 0.937500 1.000000
vt 0.937500 0.500000
vt 0.875000 1.000000
vt 0.875000 0.500000
vt 0.812500 1.000000
vt 0.812500 0.500000
vt 0.750000 1.000000
vt 0.750000 0.500000
vt 0.687500 1.000000
vt 0.687500 0.500000
vt 0.625000 1.000000
vt 0.625000 0.500000
vt 0.562500 1.000000
vt 0.562500 0.500000
vt 0.500000 1.000000
vt 0.500000 0.500000
vt 0.437500 1.000000
vt 0.437500 0.500000
vt 0.375000 1.000000
vt 0.375000 0.500000
vt 0.312500 1.000000
vt 0.312500 0.500000
vt 0.250000 1.000000
vt 0.250000 0.500000
vt 0.187500 1.000000
vt 0.187500 0.500000
vt 0.125000 1.000000
vt 0.125000 0.500000
vt 0.062500 1.000000
vt 0.062500 0.500000
vt 0.000000 1.000000
vt 0.000000 0.500000
vt 0.750000 0.490000
vt 0.841844 0.471731
vt 0.919706 0.419706
vt 0.971731 0.341844
vt 0.990000 0.250000
vt 0.971731 0.158156
vt 0.919706 0.080294
vt 0.841844 0.028269
vt 0.750000 0.010000
vt 0.658156 0.028269
vt 0.580294 0.080294
vt 0.528269 0.158156
vt 0.510000 0.250000
vt 0.528269 0.341844
vt 0.580294 0.419706
vt 0.658156 0.471731
vt 0.293589 1.000000
vt 0.643911 1.000000
vt 0.750268 1.000000
vt 0.733328 1.000000
vt 0.694144 1.000000
vt 0.647788 1.000000
vt 0.598201 1.000000
vt 0.546960 1.000000
vt 0.494903 1.000000
vt 0.442597 1.000000
vt 0.390540 1.000000
vt 0.339299 1.000000
vt 0.289712 1.000000
vt 0.243356 1.000000
vt 0.204172 1.000000
vt 0.187232 1.000000
vt 0.594298 0.375000
vt 0.625000 0.375000
vt 0.594298 0.500000
vt 0.625000 0.750000
vt 0.594298 0.750000
vt 0.375000 0.750000
vt 0.250000 0.750000
vt 0.515297 0.500000
vt 0.563596 0.500000
vt 0.515297 0.375000
vt 0.563596 0.375000
vt 0.375000 0.375000
vt 0.515297 0.750000
vt 0.578947 0.500000
vt 0.578947 0.750000
vt 0.578947 0.375000
vt 0.563596 0.750000
vt 0.563596 0.750000
vt 0.594298 0.875000
vt 0.578947 0.875000
vt 0.515297 0.875000
vt 0.375000 0.875000
vt 0.563596 0.875000
vt 0.750000 0.750000
vt 0.625000 0.875000
s 1
f 1/1/1 2/2/2 4/3/3 3/4/4
f 3/4/4 4/3/3 6/5/5 5/6/6
f 5/6/6 6/5/5 8/7/7 7/8/8
f 7/8/8 8/7/7 10/9/9 9/10/10
f 9/10/10 10/9/9 12/11/11 11/12/12
f 11/12/12 12/11/11 14/13/13 13/14/14
f 13/14/14 14/13/13 16/15/15 15/16/16
f 15/16/16 16/15/15 18/17/17 17/18/18
f 17/18/18 18/17/17 20/19/19 19/20/20
f 19/20/20 20/19/19 22/21/21 21/22/22
f 21/22/22 22/21/21 24/23/23 23/24/24
f 23/24/24 24/23/23 26/25/25 25/26/26
f 25/26/26 26/25/25 28/27/27 27/28/28
f 27/28/28 28/27/27 30/29/29 29/30/30
f 10/9/9 8/7/7 68/7/31 69/9/32
f 29/30/30 30/29/29 32/31/33 31/32/34
f 31/32/34 32/31/33 2/33/2 1/34/1
f 1/35/35 3/36/35 5/37/35 7/38/35 9/39/35 11/40/35 13/41/35 15/42/35 17/43/35 19/44/35 21/45/35 23/46/35 25/47/35 27/48/35 29/49/35 31/50/35
f 41/17/36 40/15/37 56/15/38 57/17/39
f 20/19/19 18/17/17 73/17/40 74/19/41
f 30/29/29 28/27/27 78/27/42 79/29/43
f 6/5/5 4/3/3 65/3/44 67/5/45
f 16/15/15 14/13/13 71/13/46 72/15/47
f 26/25/25 24/23/23 76/23/48 77/25/49
f 12/11/11 10/9/9 69/9/32 70/11/50
f 22/21/21 20/19/19 74/19/41 75/21/51
f 32/31/33 30/29/29 79/29/43 80/31/52
f 8/7/7 6/5/5 67/5/45 68/7/31
f 18/17/17 16/15/15 72/15/47 73/17/40
f 4/3/3 2/2/2 66/2/53 65/3/44
f 28/27/27 26/25/25 77/25/49 78/27/42
f 14/13/13 12/11/11 70/11/50 71/13/46
f 24/23/23 22/21/21 75/21/51 76/23/48
f 2/33/2 32/31/33 80/31/52 66/33/53
f 33/3/54 34/2/55 50/2/56 49/3/57
f 34/33/55 48/31/58 64/31/59 50/33/56
f 42/19/60 41/17/36 57/17/39 58/19/61
f 35/5/62 33/3/54 49/3/57 51/5/63
f 43/21/64 42/19/60 58/19/61 59/21/65
f 36/7/66 35/5/62 51/5/63 52/7/67
f 44/23/68 43/21/64 59/21/65 60/23/69
f 37/9/70 36/7/66 52/7/67 53/9/71
f 45/25/72 44/23/68 60/23/69 61/25/73
f 38/11/74 37/9/70 53/9/71 54/11/75
f 46/27/76 45/25/72 61/25/73 62/27/77
f 39/13/78 38/11/74 54/11/75 55/13/79
f 47/29/80 46/27/76 62/27/77 63/29/81
f 40/15/37 39/13/78 55/13/79 56/15/38
f 48/31/58 47/29/80 63/29/81 64/31/59
f 95/29/82 94/27/83 110/27/84 111/29/85
f 34/2/55 33/3/54 65/3/44 66/2/53
f 33/3/54 35/5/62 67/5/45 65/3/44
f 35/5/62 36/7/66 68/7/31 67/5/45
f 36/7/66 37/9/70 69/9/32 68/7/31
f 37/9/70 38/11/74 70/11/50 69/9/32
f 38/11/74 39/13/78 71/13/46 70/11/50
f 39/13/78 40/15/37 72/15/47 71/13/46
f 40/15/37 41/17/36 73/17/40 72/15/47
f 41/17/36 42/19/60 74/19/41 73/17/40
f 42/19/60 43/21/64 75/21/51 74/19/41
f 43/21/64 44/23/68 76/23/48 75/21/51
f 44/23/68 45/25/72 77/25/49 76/23/48
f 45/25/72 46/27/76 78/27/42 77/25/49
f 46/27/76 47/29/80 79/29/43 78/27/42
f 47/29/80 48/31/58 80/31/52 79/29/43
f 48/31/58 34/33/55 66/33/53 80/31/52
f 49/3/57 50/2/56 82/2/86 81/3/87
f 51/5/63 49/3/57 81/3/87 83/5/88
f 52/7/67 51/5/63 83/5/88 84/7/89
f 53/9/71 52/7/67 84/7/89 85/9/90
f 54/11/75 53/9/71 85/9/90 86/11/91
f 55/13/79 54/11/75 86/11/91 87/13/92
f 56/15/38 55/13/79 87/13/92 88/15/93
f 57/17/39 56/15/38 88/15/93 89/17/94
f 58/19/61 57/17/39 89/17/94 90/19/95
f 59/21/65 58/19/61 90/19/95 91/21/96
f 60/23/69 59/21/65 91/21/96 92/23/97
f 61/25/73 60/23/69 92/23/97 93/25/98
f 62/27/77 61/25/73 93/25/98 94/27/83
f 63/29/81 62/27/77 94/27/83 95/29/82
f 64/31/59 63/29/81 95/29/82 96/31/99
f 50/33/56 64/31/59 96/31/99 82/33/86
f 88/15/93 87/13/92 103/13/100 104/15/101
f 96/31/99 95/29/82 111/29/85 112/31/102
f 89/17/94 88/15/93 104/15/101 105/17/103
f 81/3/87 82/2/86 98/2/104 97/3/105
f 82/33/86 96/31/99 112/31/102 98/33/104
f 90/19/95 89/17/94 105/17/103 106/19/106
f 83/5/88 81/3/87 97/3/105 99/5/107
f 91/21/96 90/19/95 106/19/106 107/21/108
f 84/7/89 83/5/88 99/5/107 100/7/109
f 92/23/97 91/21/96 107/21/108 108/23/110
f 85/9/90 84/7/89 100/7/109 101/9/111
f 93/25/98 92/23/97 108/23/110 109/25/112
f 86/11/91 85/9/90 101/9/111 102/11/113
f 94/27/83 93/25/98 109/25/112 110/27/84
f 87/13/92 86/11/91 102/11/113 103/13/100
f 111/29/35 110/27/35 126/27/35 127/29/35
f 103/13/35 102/11/35 118/11/35 119/13/35
f 110/27/35 109/25/35 125/25/35 126/27/35
f 102/11/35 101/9/35 117/9/35 118/11/35
f 109/25/35 108/23/35 124/23/35 125/25/35
f 101/9/35 100/7/35 116/7/35 117/9/35
f 108/23/35 107/21/35 123/21/35 124/23/35
f 100/7/35 99/5/35 115/5/35 116/7/35
f 107/21/35 106/19/35 122/19/35 123/21/35
f 99/5/35 97/3/35 113/3/35 115/5/35
f 106/19/35 105/17/35 121/17/35 122/19/35
f 98/33/35 112/31/35 128/31/35 114/33/35
f 97/3/35 98/2/35 114/2/35 113/3/35
f 105/17/35 104/15/35 120/15/35 121/17/35
f 112/31/35 111/29/35 127/29/35 128/31/35
f 104/15/35 103/13/35 119/13/35 120/15/35
f 120/15/114 119/13/115 151/13/115 152/15/114
f 128/31/116 127/29/117 159/29/117 160/31/116
f 121/17/118 120/15/114 152/15/114 153/17/118
f 113/3/119 114/2/120 146/2/120 145/3/119
f 114/33/120 128/31/116 160/31/116 146/33/120
f 122/19/121 121/17/118 153/17/118 154/19/121
f 115/5/122 113/3/119 145/3/119 147/5/122
f 123/21/123 122/19/121 154/19/121 155/21/123
f 116/7/124 115/5/122 147/5/122 148/7/124
f 124/23/125 123/21/123 155/21/123 156/23/125
f 117/9/126 116/7/124 148/7/124 149/9/126
f 125/25/127 124/23/125 156/23/125 157/25/127
f 118/11/128 117/9/126 149/9/126 150/11/128
f 126/27/129 125/25/127 157/25/127 158/27/129
f 119/13/115 118/11/128 150/11/128 151/13/115
f 127/29/117 126/27/129 158/27/129 159/29/117
f 130/51/130 129/52/131 145/3/131 146/33/130
f 129/52/131 131/53/132 147/5/132 145/3/131
f 131/53/132 132/54/133 148/7/133 147/5/132
f 132/54/133 133/55/134 149/9/134 148/7/133
f 133/55/134 134/56/135 150/11/135 149/9/134
f 134/56/135 135/57/136 151/13/136 150/11/135
f 135/57/136 136/58/137 152/15/137 151/13/136
f 136/58/137 137/59/138 153/17/138 152/15/137
f 137/59/138 138/60/139 154/19/139 153/17/138
f 138/60/139 139/61/140 155/21/140 154/19/139
f 139/61/140 140/62/141 156/23/141 155/21/140
f 140/62/141 141/63/142 157/25/142 156/23/141
f 141/63/142 142/64/143 158/27/143 157/25/142
f 142/64/143 143/65/144 159/29/144 158/27/143
f 143/65/144 144/66/145 160/31/145 159/29/144
f 144/66/145 130/51/130 146/33/130 160/31/145
f 129/52/146 130/51/146 144/66/146 143/65/146 142/64/146 141/63/146 140/62/146 139/61/146 138/60/146 137/59/146 136/58/146 135/57/146 134/56/146 133/55/146 132/54/146 131/53/146
f 184/67/147 176/68/147 164/14/147 169/69/147
f 169/69/148 164/14/148 162/70/148 170/71/148
f 175/26/35 163/22/35 161/72/35 177/73/35
f 167/74/104 165/75/104 171/75/104 173/74/104
f 181/76/104 180/77/104 165/75/104 167/74/104
f 175/78/104 181/76/104 167/74/104 163/22/104
f 163/22/149 167/74/149 168/79/149 161/72/149
f 197/80/150 169/69/150 170/71/150 198/81/150
f 199/82/151 184/67/151 169/69/151 197/80/151
f 190/75/152 189/83/152 186/84/152 185/75/152
f 165/75/146 166/84/146 172/84/146 171/75/146
f 168/79/146 167/74/146 173/74/146 174/79/146
f 166/84/103 168/79/103 174/79/103 172/84/103
f 198/81/153 170/71/153 183/85/153 200/86/153
f 161/72/103 168/79/103 182/87/103 177/88/103
f 168/79/103 166/84/103 179/89/103 182/87/103
f 164/14/154 176/10/154 178/90/154 162/70/154
f 170/71/155 162/70/155 178/91/155 183/85/155
f 187/74/156 185/75/156 186/84/156 188/79/156
f 192/79/157 191/74/157 187/74/157 188/79/157
f 191/74/104 190/75/104 185/75/104 187/74/104
f 189/83/103 192/79/103 188/79/103 186/84/103
f 195/84/103 194/79/103 192/79/103 189/83/103
f 196/74/104 193/75/104 190/75/104 191/74/104
f 194/79/158 196/74/158 191/74/158 192/79/158
f 193/75/159 195/84/159 189/83/159 190/75/159
f 171/75/160 172/84/160 195/84/160 193/75/160
f 174/79/161 173/74/161 196/74/161 194/79/161
f 173/74/104 171/75/104 193/75/104 196/74/104
f 172/84/103 174/79/103 194/79/103 195/84/103
f 166/84/162 198/81/162 200/86/162 179/89/162
f 180/77/163 199/82/163 197/80/163 165/75/163
f 165/75/164 197/80/164 198/81/164 166/84/164
f 184/67/165 209/69/165 204/14/165 176/68/165
f 209/69/166 210/71/166 202/70/166 204/14/166
f 175/26/35 177/73/35 201/72/35 203/22/35
f 207/74/104 213/74/104 211/75/104 205/75/104
f 181/76/104 207/74/104 205/75/104 180/77/104
f 175/78/104 203/22/104 207/74/104 181/76/104
f 203/22/167 201/72/167 208/79/167 207/74/167
f 227/80/168 228/81/168 210/71/168 209/69/168
f 199/82/169 227/80/169 209/69/169 184/67/169
f 220/75/170 215/75/170 216/84/170 219/83/170
f 205/75/146 211/75/146 212/84/146 206/84/146
f 208/79/146 214/79/146 213/74/146 207/74/146
f 206/84/103 212/84/103 214/79/103 208/79/103
f 228/81/171 200/86/171 183/85/171 210/71/171
f 201/72/103 177/88/103 182/87/103 208/79/103
f 208/79/103 182/87/103 179/89/103 206/84/103
f 204/14/172 202/70/172 178/90/172 176/10/172
f 210/71/173 183/85/173 178/91/173 202/70/173
f 217/74/174 218/79/174 216/84/174 215/75/174
f 222/79/175 218/79/175 217/74/175 221/74/175
f 221/74/104 217/74/104 215/75/104 220/75/104
f 219/83/103 216/84/103 218/79/103 222/79/103
f 225/84/103 219/83/103 222/79/103 224/79/103
f 226/74/104 221/74/104 220/75/104 223/75/104
f 224/79/176 222/79/176 221/74/176 226/74/176
f 223/75/177 220/75/177 219/83/177 225/84/177
f 211/75/178 223/75/178 225/84/178 212/84/178
f 214/79/179 224/79/179 226/74/179 213/74/179
f 213/74/104 226/74/104 223/75/104 211/75/104
f 212/84/103 225/84/103 224/79/103 214/79/103
f 206/84/180 179/89/180 200/86/180 228/81/180
f 180/77/181 205/75/181 227/80/181 199/82/181
f 205/75/182 206/84/182 228/81/182 227/80/182
