# Blender 4.4.3
# www.blender.org
o Rook
v 0.000000 -0.004264 -0.334361
v 0.000000 0.217531 -0.288261
v 0.127955 -0.004264 -0.308910
v 0.110313 0.217531 -0.266319
v 0.236429 -0.004264 -0.236429
v 0.203831 0.217531 -0.203831
v 0.308910 -0.004264 -0.127955
v 0.266319 0.217531 -0.110313
v 0.334361 -0.004264 0.000000
v 0.288261 0.217531 0.000000
v 0.308910 -0.004264 0.127955
v 0.266319 0.217531 0.110313
v 0.236429 -0.004264 0.236429
v 0.203831 0.217531 0.203831
v 0.127955 -0.004264 0.308910
v 0.110313 0.217531 0.266319
v 0.000000 -0.004264 0.334361
v 0.000000 0.217531 0.288261
v -0.127955 -0.004264 0.308910
v -0.110313 0.217531 0.266319
v -0.236429 -0.004264 0.236429
v -0.203831 0.217531 0.203831
v -0.308910 -0.004264 0.127955
v -0.266319 0.217531 0.110313
v -0.334361 -0.004264 0.000000
v -0.288261 0.217531 0.000000
v -0.308910 -0.004264 -0.127955
v -0.266319 0.217531 -0.110313
v -0.236429 -0.004264 -0.236429
v -0.203831 0.217531 -0.203831
v -0.127955 -0.004264 -0.308910
v -0.110313 0.217531 -0.266319
v 0.068505 0.348928 -0.165386
v -0.000000 0.348928 -0.179013
v 0.126581 0.348928 -0.126581
v 0.165386 0.348928 -0.068505
v 0.179013 0.348928 -0.000000
v 0.165386 0.348928 0.068505
v 0.126581 0.348928 0.126581
v 0.068505 0.348928 0.165386
v -0.000000 0.348928 0.179013
v -0.068505 0.348928 0.165386
v -0.126581 0.348928 0.126581
v -0.165386 0.348928 0.068505
v -0.179013 0.348928 -0.000000
v -0.165386 0.348928 -0.068505
v -0.126581 0.348928 -0.126581
v -0.068505 0.348928 -0.165386
v 0.068505 0.718144 -0.165386
v -0.000000 0.718144 -0.179013
v 0.126581 0.718144 -0.126581
v 0.165386 0.718144 -0.068505
v 0.179013 0.718144 -0.000000
v 0.165386 0.718144 0.068505
v 0.126581 0.718144 0.126581
v 0.068505 0.718144 0.165386
v -0.000000 0.718144 0.179013
v -0.068505 0.718144 0.165386
v -0.126581 0.718144 0.126581
v -0.165386 0.718144 0.068505
v -0.179013 0.718144 -0.000000
v -0.165386 0.718144 -0.068505
v -0.126581 0.718144 -0.126581
v -0.068505 0.718144 -0.165386
v 0.094536 0.835082 -0.228230
v -0.000000 0.835082 -0.247035
v 0.174680 0.835082 -0.174680
v 0.228230 0.835082 -0.094536
v 0.247035 0.835082 -0.000000
v 0.228230 0.835082 0.094536
v 0.174680 0.835082 0.174680
v 0.094536 0.835082 0.228230
v -0.000000 0.835082 0.247035
v -0.094536 0.835082 0.228230
v -0.174680 0.835082 0.174680
v -0.228230 0.835082 0.094536
v -0.247035 0.835082 -0.000000
v -0.228230 0.835082 -0.094536
v -0.174680 0.835082 -0.174680
v -0.094536 0.835082 -0.228230
v 0.061387 1.051744 -0.148201
v 0.000000 1.051744 -0.160412
v 0.113428 1.051744 -0.113428
v 0.148201 1.051744 -0.061387
v 0.160412 1.051744 -0.000000
v 0.148201 1.051744 0.061387
v 0.113428 1.051744 0.113428
v 0.061387 1.051744 0.148201
v 0.000000 1.051744 0.160412
v -0.061387 1.051744 0.148201
v -0.113428 1.051744 0.113428
v -0.148201 1.051744 0.061387
v -0.160412 1.051744 -0.000000
v -0.148201 1.051744 -0.061387
v -0.113428 1.051744 -0.113428
v -0.061387 1.051744 -0.148201
v 0.098969 1.051744 -0.238932
v 0.000000 1.051744 -0.258618
v 0.182871 1.051744 -0.182871
v 0.238932 1.051744 -0.098969
v 0.258618 1.051744 -0.000000
v 0.238932 1.051744 0.098969
v 0.182871 1.051744 0.182871
v 0.098969 1.051744 0.238932
v 0.000000 1.051744 0.258618
v -0.098969 1.051744 0.238932
v -0.182871 1.051744 0.182871
v -0.238932 1.051744 0.098969
v -0.258618 1.051744 -0.000000
v -0.238932 1.051744 -0.098969
v -0.182871 1.051744 -0.182871
v -0.098969 1.051744 -0.238932
v 0.061387 0.976858 -0.148201
v 0.000000 0.976858 -0.160412
v 0.113428 0.976858 -0.113428
v 0.148201 0.976858 -0.061387
v 0.160412 0.976858 -0.000000
v 0.148201 0.976858 0.061387
v 0.113428 0.976858 0.113428
v 0.061387 0.976858 0.148201
v 0.000000 0.976858 0.160412
v -0.061387 0.976858 0.148201
v -0.113428 0.976858 0.113428
v -0.148201 0.976858 0.061387
v -0.160412 0.976858 -0.000000
v -0.148201 0.976858 -0.061387
v -0.113428 0.976858 -0.113428
v -0.061387 0.976858 -0.148201
v -0.182871 1.051744 0.182871
v -0.098969 1.051744 0.238932
v -0.113428 1.051744 0.113428
v -0.061387 1.051744 0.148201
v 0.182871 1.111022 -0.182871
v 0.098969 1.111022 -0.238932
v 0.258618 1.111022 -0.000000
v 0.238932 1.111022 -0.098969
v 0.182871 1.111022 0.182871
v 0.238932 1.111022 0.098969
v 0.000000 1.111022 0.258618
v 0.098969 1.111022 0.238932
v -0.258618 1.111022 -0.000000
v -0.238932 1.111022 0.098969
v -0.182871 1.111022 -0.182871
v -0.238932 1.111022 -0.098969
v 0.000000 1.111022 -0.258618
v -0.098969 1.111022 -0.238932
v 0.113428 1.111022 -0.113428
v 0.061387 1.111022 -0.148201
v 0.160412 1.111022 -0.000000
v 0.148201 1.111022 -0.061387
v 0.113428 1.111022 0.113428
v 0.148201 1.111022 0.061387
v 0.000000 1.111022 0.160412
v 0.061387 1.111022 0.148201
v -0.160412 1.111022 -0.000000
v -0.148201 1.111022 0.061387
v -0.113428 1.111022 -0.113428
v -0.148201 1.111022 -0.061387
v 0.000000 1.111022 -0.160412
v -0.061387 1.111022 -0.148201
v -0.182871 1.111022 0.182871
v -0.098969 1.111022 0.238932
v -0.113428 1.111022 0.113428
v -0.061387 1.111022 0.148201
vn -0.0000 0.2035 -0.9791
vn -0.0000 0.4500 -0.8930
vn 0.3417 0.4500 -0.8250
vn 0.3747 0.2035 -0.9045
vn 0.6315 0.4500 -0.6315
vn 0.6923 0.2035 -0.6923
vn 0.8250 0.4500 -0.3417
vn 0.9045 0.2035 -0.3747
vn 0.8930 0.4500 -0.0000
vn 0.9791 0.2035 -0.0000
vn 0.8250 0.4500 0.3417
vn 0.9045 0.2035 0.3747
vn 0.6315 0.4500 0.6315
vn 0.6923 0.2035 0.6923
vn 0.3417 0.4500 0.8250
vn 0.3747 0.2035 0.9045
vn -0.0000 0.4500 0.8930
vn -0.0000 0.2035 0.9791
vn -0.3417 0.4500 0.8250
vn -0.3747 0.2035 0.9045
vn -0.6315 0.4500 0.6315
vn -0.6923 0.2035 0.6923
vn -0.8250 0.4500 0.3417
vn -0.9045 0.2035 0.3747
vn -0.8930 0.4500 -0.0000
vn -0.9791 0.2035 -0.0000
vn -0.8250 0.4500 -0.3417
vn -0.9045 0.2035 -0.3747
vn -0.6315 0.4500 -0.6315
vn -0.6923 0.2035 -0.6923
vn 0.8540 0.3816 -0.3537
vn 0.9243 0.3816 -0.0000
vn -0.3417 0.4500 -0.8250
vn -0.3747 0.2035 -0.9045
vn -0.0000 -1.0000 -0.0000
vn -0.0000 0.3816 0.9243
vn 0.3537 0.3816 0.8540
vn 0.3674 -0.2795 0.8871
vn -0.0000 -0.2795 0.9601
vn -0.3537 0.3816 0.8540
vn -0.8540 0.3816 -0.3537
vn -0.6536 0.3816 -0.6536
vn 0.3537 0.3816 -0.8540
vn 0.6536 0.3816 -0.6536
vn 0.6536 0.3816 0.6536
vn -0.8540 0.3816 0.3537
vn -0.9243 0.3816 -0.0000
vn 0.8540 0.3816 0.3537
vn -0.6536 0.3816 0.6536
vn -0.3537 0.3816 -0.8540
vn -0.0000 0.3816 -0.9243
vn -0.8871 -0.2795 -0.3674
vn -0.9601 -0.2795 -0.0000
vn -0.9552 -0.2960 -0.0000
vn -0.8825 -0.2960 -0.3655
vn -0.0000 -0.2795 -0.9601
vn 0.3674 -0.2795 -0.8871
vn -0.3674 -0.2795 -0.8871
vn -0.3674 -0.2795 0.8871
vn 0.6789 -0.2795 -0.6789
vn -0.6789 -0.2795 0.6789
vn 0.8871 -0.2795 -0.3674
vn -0.8871 -0.2795 0.3674
vn 0.9601 -0.2795 -0.0000
vn 0.8871 -0.2795 0.3674
vn 0.6789 -0.2795 0.6789
vn -0.6789 -0.2795 -0.6789
vn 0.8825 -0.2960 -0.3655
vn 0.6754 -0.2960 -0.6754
vn 0.6583 -0.0355 -0.7520
vn 0.9466 -0.0355 -0.3204
vn 0.8825 -0.2960 0.3655
vn 0.6754 -0.2960 0.6754
vn -0.6754 -0.2960 -0.6754
vn 0.3655 -0.2960 0.8825
vn -0.3655 -0.2960 -0.8825
vn -0.0000 -0.2960 0.9552
vn -0.0000 -0.2960 -0.9552
vn 0.3655 -0.2960 -0.8825
vn -0.3655 -0.2960 0.8825
vn -0.6754 -0.2960 0.6754
vn -0.8825 -0.2960 0.3655
vn 0.9552 -0.2960 -0.0000
vn 0.3827 -0.0000 -0.9239
vn -0.0662 -0.0000 -0.9978
vn -0.0000 -0.0000 -1.0000
vn -0.7061 -0.0534 0.7061
vn -0.9466 -0.0355 0.3204
vn 0.9972 -0.0355 -0.0662
vn -0.9972 -0.0355 0.0662
vn 0.8959 -0.0355 0.4428
vn -0.8959 -0.0355 -0.4428
vn 0.7520 -0.0355 0.6583
vn -0.7520 -0.0355 -0.6583
vn 0.3204 -0.0355 0.9466
vn -0.3204 -0.0355 -0.9466
vn 0.0662 -0.0355 0.9972
vn -0.0662 -0.0355 -0.9972
vn 0.4428 -0.0355 -0.8959
vn -0.3821 -0.0534 0.9226
vn -0.0000 1.0000 -0.0000
vn -0.3207 -0.0000 -0.9472
vn -0.1951 -0.0000 -0.9808
vn -0.0000 -0.0000 1.0000
vn -0.9808 -0.0000 0.1951
vn -0.3827 -0.0000 -0.9239
vn -0.8965 -0.0000 -0.4430
vn -0.7523 -0.0000 -0.6588
vn -0.8315 -0.0000 -0.5556
vn 0.7071 -0.0000 0.7071
vn -0.6588 -0.0000 0.7523
vn -0.4430 -0.0000 0.8965
vn -0.3827 -0.0000 0.9239
vn -0.7071 -0.0000 0.7071
vn 0.7071 -0.0000 -0.7071
vn -0.9472 -0.0000 0.3207
vn -0.9239 -0.0000 0.3827
vn 0.9472 -0.0000 -0.3207
vn 0.9239 -0.0000 -0.3827
vn -0.9978 -0.0000 0.0662
vn -1.0000 -0.0000 -0.0000
vn 0.9978 -0.0000 -0.0662
vn 1.0000 -0.0000 -0.0000
vn -0.9239 -0.0000 -0.3827
vn 0.8965 -0.0000 0.4430
vn 0.9239 -0.0000 0.3827
vn -0.7071 -0.0000 -0.7071
vn 0.7523 -0.0000 0.6588
vn 0.3207 -0.0000 0.9472
vn 0.3827 -0.0000 0.9239
vn 0.0662 -0.0000 0.9978
vn 0.5556 -0.0000 -0.8315
vn -0.5556 -0.0000 0.8315
vn 0.9808 -0.0000 -0.1951
vn 0.8315 -0.0000 0.5556
vn 0.1951 -0.0000 0.9808
vt 1.000000 0.500000
vt 1.000000 1.000000
vt 0.937500 1.000000
vt 0.937500 0.500000
vt 0.875000 1.000000
vt 0.875000 0.500000
vt 0.812500 1.000000
vt 0.812500 0.500000
vt 0.750000 1.000000
vt 0.750000 0.500000
vt 0.687500 1.000000
vt 0.687500 0.500000
vt 0.625000 1.000000
vt 0.625000 0.500000
vt 0.562500 1.000000
vt 0.562500 0.500000
vt 0.500000 1.000000
vt 0.500000 0.500000
vt 0.437500 1.000000
vt 0.437500 0.500000
vt 0.375000 1.000000
vt 0.375000 0.500000
vt 0.312500 1.000000
vt 0.312500 0.500000
vt 0.250000 1.000000
vt 0.250000 0.500000
vt 0.187500 1.000000
vt 0.187500 0.500000
vt 0.125000 1.000000
vt 0.125000 0.500000
vt 0.062500 1.000000
vt 0.062500 0.500000
vt 0.000000 1.000000
vt 0.000000 0.500000
vt 0.750000 0.490000
vt 0.841844 0.471731
vt 0.919706 0.419706
vt 0.971731 0.341844
vt 0.990000 0.250000
vt 0.971731 0.158156
vt 0.919706 0.080294
vt 0.841844 0.028269
vt 0.750000 0.010000
vt 0.658156 0.028269
vt 0.580294 0.080294
vt 0.528269 0.158156
vt 0.510000 0.250000
vt 0.528269 0.341844
vt 0.580294 0.419706
vt 0.658156 0.471731
vt 0.193032 0.112468
vt 0.250000 0.101137
vt 0.250000 0.398864
vt 0.306968 0.387532
vt 0.341844 0.471731
vt 0.250000 0.490000
vt 0.471731 0.158156
vt 0.387532 0.193032
vt 0.355262 0.355262
vt 0.387532 0.306968
vt 0.471731 0.341844
vt 0.419706 0.419706
vt 0.306968 0.112468
vt 0.398863 0.250000
vt 0.490000 0.250000
vt 0.355262 0.144738
vt 0.341844 0.028269
vt 0.419706 0.080294
vt 0.158156 0.028269
vt 0.250000 0.010000
vt 0.144738 0.144738
vt 0.112468 0.193032
vt 0.028269 0.158156
vt 0.080294 0.080294
vt 0.101137 0.250000
vt 0.112468 0.306968
vt 0.028269 0.341844
vt 0.010000 0.250000
vt 0.144738 0.355262
vt 0.193032 0.387532
vt 0.158156 0.471731
vt 0.080294 0.419706
s 1
f 1/1/1 2/2/2 4/3/3 3/4/4
f 3/4/4 4/3/3 6/5/5 5/6/6
f 5/6/6 6/5/5 8/7/7 7/8/8
f 7/8/8 8/7/7 10/9/9 9/10/10
f 9/10/10 10/9/9 12/11/11 11/12/12
f 11/12/12 12/11/11 14/13/13 13/14/14
f 13/14/14 14/13/13 16/15/15 15/16/16
f 15/16/16 16/15/15 18/17/17 17/18/18
f 17/18/18 18/17/17 20/19/19 19/20/20
f 19/20/20 20/19/19 22/21/21 21/22/22
f 21/22/22 22/21/21 24/23/23 23/24/24
f 23/24/24 24/23/23 26/25/25 25/26/26
f 25/26/26 26/25/25 28/27/27 27/28/28
f 27/28/28 28/27/27 30/29/29 29/30/30
f 10/9/9 8/7/7 36/7/31 37/9/32
f 29/30/30 30/29/29 32/31/33 31/32/34
f 31/32/34 32/31/33 2/33/2 1/34/1
f 1/35/35 3/36/35 5/37/35 7/38/35 9/39/35 11/40/35 13/41/35 15/42/35 17/43/35 19/44/35 21/45/35 23/46/35 25/47/35 27/48/35 29/49/35 31/50/35
f 41/17/36 40/15/37 56/15/38 57/17/39
f 20/19/19 18/17/17 41/17/36 42/19/40
f 30/29/29 28/27/27 46/27/41 47/29/42
f 6/5/5 4/3/3 33/3/43 35/5/44
f 16/15/15 14/13/13 39/13/45 40/15/37
f 26/25/25 24/23/23 44/23/46 45/25/47
f 12/11/11 10/9/9 37/9/32 38/11/48
f 22/21/21 20/19/19 42/19/40 43/21/49
f 32/31/33 30/29/29 47/29/42 48/31/50
f 8/7/7 6/5/5 35/5/44 36/7/31
f 18/17/17 16/15/15 40/15/37 41/17/36
f 4/3/3 2/2/2 34/2/51 33/3/43
f 28/27/27 26/25/25 45/25/47 46/27/41
f 14/13/13 12/11/11 38/11/48 39/13/45
f 24/23/23 22/21/21 43/21/49 44/23/46
f 2/33/2 32/31/33 48/31/50 34/33/51
f 62/27/52 61/25/53 77/25/54 78/27/55
f 33/3/43 34/2/51 50/2/56 49/3/57
f 34/33/51 48/31/50 64/31/58 50/33/56
f 42/19/40 41/17/36 57/17/39 58/19/59
f 35/5/44 33/3/43 49/3/57 51/5/60
f 43/21/49 42/19/40 58/19/59 59/21/61
f 36/7/31 35/5/44 51/5/60 52/7/62
f 44/23/46 43/21/49 59/21/61 60/23/63
f 37/9/32 36/7/31 52/7/62 53/9/64
f 45/25/47 44/23/46 60/23/63 61/25/53
f 38/11/48 37/9/32 53/9/64 54/11/65
f 46/27/41 45/25/47 61/25/53 62/27/52
f 39/13/45 38/11/48 54/11/65 55/13/66
f 47/29/42 46/27/41 62/27/52 63/29/67
f 40/15/37 39/13/45 55/13/66 56/15/38
f 48/31/50 47/29/42 63/29/67 64/31/58
f 68/7/68 67/5/69 99/5/70 100/7/71
f 55/13/66 54/11/65 70/11/72 71/13/73
f 63/29/67 62/27/52 78/27/55 79/29/74
f 56/15/38 55/13/66 71/13/73 72/15/75
f 64/31/58 63/29/67 79/29/74 80/31/76
f 57/17/39 56/15/38 72/15/75 73/17/77
f 49/3/57 50/2/56 66/2/78 65/3/79
f 50/33/56 64/31/58 80/31/76 66/33/78
f 58/19/59 57/17/39 73/17/77 74/19/80
f 51/5/60 49/3/57 65/3/79 67/5/69
f 59/21/61 58/19/59 74/19/80 75/21/81
f 52/7/62 51/5/60 67/5/69 68/7/68
f 60/23/63 59/21/61 75/21/81 76/23/82
f 53/9/64 52/7/62 68/7/68 69/9/83
f 61/25/53 60/23/63 76/23/82 77/25/54
f 54/11/65 53/9/64 69/9/83 70/11/72
f 90/51/84 89/52/85 121/52/86 122/51/84
f 76/23/82 75/21/81 107/21/87 108/23/88
f 69/9/83 68/7/68 100/7/71 101/9/89
f 77/25/54 76/23/82 108/23/88 109/25/90
f 70/11/72 69/9/83 101/9/89 102/11/91
f 78/27/55 77/25/54 109/25/90 110/27/92
f 71/13/73 70/11/72 102/11/91 103/13/93
f 79/29/74 78/27/55 110/27/92 111/29/94
f 72/15/75 71/13/73 103/13/93 104/15/95
f 80/31/76 79/29/74 111/29/94 112/31/96
f 73/17/77 72/15/75 104/15/95 105/17/97
f 65/3/79 66/2/78 98/2/98 97/3/99
f 66/33/78 80/31/76 112/31/96 98/33/98
f 74/19/80 73/17/77 105/17/97 106/19/100
f 67/5/69 65/3/79 97/3/99 99/5/70
f 75/21/81 74/19/80 106/19/100 107/21/87
f 82/53/101 81/54/101 97/55/101 98/56/101
f 102/57/84 86/58/84 152/58/84 138/57/84
f 83/59/101 84/60/101 100/61/101 99/62/101
f 88/63/102 89/52/85 153/52/103 154/63/103
f 85/64/101 86/58/101 102/57/101 101/65/101
f 85/64/104 101/65/104 135/65/104 149/64/104
f 87/66/101 88/63/101 104/67/101 103/68/101
f 109/25/90 108/23/88 142/23/105 141/25/105
f 89/52/101 90/51/101 106/69/101 105/70/101
f 90/51/101 91/71/101 131/71/101 132/51/101
f 91/71/101 92/72/101 108/73/101 107/74/101
f 100/61/106 84/60/106 150/60/106 136/61/106
f 93/75/101 94/76/101 110/77/101 109/78/101
f 86/58/107 87/66/108 151/66/109 152/58/109
f 95/79/101 96/80/101 112/81/101 111/82/101
f 83/59/110 99/62/110 133/62/110 147/59/110
f 113/54/101 114/53/101 128/80/101 127/79/101 126/76/101 125/75/101 124/72/101 123/71/101 122/51/101 121/52/101 120/63/101 119/66/101 118/58/101 117/64/101 116/60/101 115/59/101
f 83/59/111 81/54/112 113/54/113 115/59/114
f 91/71/115 90/51/84 122/51/84 123/71/115
f 84/60/116 83/59/111 115/59/114 116/60/117
f 92/72/118 91/71/115 123/71/115 124/72/119
f 85/64/120 84/60/116 116/60/117 117/64/121
f 93/75/122 92/72/118 124/72/119 125/75/123
f 86/58/107 85/64/120 117/64/121 118/58/124
f 94/76/125 93/75/122 125/75/123 126/76/126
f 87/66/108 86/58/107 118/58/124 119/66/127
f 95/79/128 94/76/125 126/76/126 127/79/110
f 88/63/102 87/66/108 119/66/127 120/63/106
f 96/80/129 95/79/128 127/79/110 128/80/130
f 89/52/85 88/63/102 120/63/106 121/52/86
f 81/54/112 82/53/131 114/53/104 113/54/113
f 82/53/131 96/80/129 128/80/130 114/53/104
f 112/81/117 96/80/117 160/80/117 146/81/117
f 106/69/101 90/51/101 132/51/101 130/69/101
f 107/21/101 106/19/101 130/19/101 129/21/101
f 91/71/101 107/74/101 129/74/101 131/71/101
f 148/54/101 147/59/101 133/62/101 134/55/101
f 150/60/101 149/64/101 135/65/101 136/61/101
f 152/58/101 151/66/101 137/68/101 138/57/101
f 154/63/101 153/52/101 139/70/101 140/67/101
f 156/72/101 155/75/101 141/78/101 142/73/101
f 158/76/101 157/79/101 143/82/101 144/77/101
f 160/80/101 159/53/101 145/56/101 146/81/101
f 164/51/101 163/71/101 161/74/101 162/69/101
f 111/29/94 110/27/92 144/27/109 143/29/109
f 87/66/114 103/68/114 137/68/114 151/66/114
f 99/5/70 97/3/99 134/3/132 133/5/132
f 104/67/119 88/63/119 154/63/119 140/67/119
f 98/33/98 112/31/96 146/31/103 145/33/103
f 129/21/133 130/19/133 162/19/133 161/21/133
f 89/52/121 105/70/121 139/70/121 153/52/121
f 92/72/118 93/75/122 155/75/134 156/72/134
f 101/9/89 100/7/71 136/7/134 135/9/134
f 132/51/132 131/71/132 163/71/132 164/51/132
f 130/69/126 132/51/126 164/51/126 162/69/126
f 94/76/125 95/79/128 157/79/135 158/76/135
f 103/13/93 102/11/91 138/11/135 137/13/135
f 131/71/127 129/74/127 161/74/127 163/71/127
f 108/73/130 92/72/130 156/72/130 142/73/130
f 81/54/112 83/59/111 147/59/133 148/54/133
f 93/75/86 109/78/86 141/78/86 155/75/86
f 96/80/129 82/53/131 159/53/136 160/80/136
f 105/17/97 104/15/95 140/15/136 139/17/136
f 110/77/113 94/76/113 158/76/113 144/77/113
f 82/53/123 98/56/123 145/56/123 159/53/123
f 84/60/116 85/64/120 149/64/105 150/60/105
f 95/79/115 111/82/115 143/82/115 157/79/115
f 97/55/124 81/54/124 148/54/124 134/55/124
